Avara-bolditalic.ufo
<glyph name="exclam" format="1">
  <advance width="240"/>
  <unicode hex="0021"/>
  <outline>
    <contour>
      <point x="320" y="800" type="line"/>
      <point x="400" y="800" type="line"/>
      <point x="440" y="760" type="line"/>
      <point x="160" y="240" type="line"/>
      <point x="120" y="240" type="line"/>
      <point x="280" y="760" type="line"/>
    </contour>
    <contour>
      <point x="120" y="0" type="line"/>
      <point x="40" y="40" type="line"/>
      <point x="40" y="80" type="line"/>
      <point x="80" y="160" type="line"/>
      <point x="120" y="160" type="line"/>
      <point x="200" y="120" type="line"/>
      <point x="200" y="80" type="line"/>
      <point x="160" y="0" type="line"/>
    </contour>
  </outline>
</glyph>
<glyph name="numbersign" format="1">
  <advance width="680"/>
  <unicode hex="0023"/>
  <outline>
    <contour>
      <point x="80" y="240" type="line"/>
      <point x="160" y="240" type="line"/>
      <point x="40" y="80" type="line"/>
      <point x="120" y="80" type="line"/>
      <point x="240" y="240" type="line"/>
      <point x="360" y="240" type="line"/>
      <point x="240" y="80" type="line"/>
      <point x="320" y="80" type="line"/>
      <point x="440" y="240" type="line"/>
      <point x="560" y="240" type="line"/>
      <point x="600" y="320" type="line"/>
      <point x="480" y="320" type="line"/>
      <point x="600" y="480" type="line"/>
      <point x="680" y="480" type="line"/>
      <point x="720" y="560" type="line"/>
      <point x="640" y="560" type="line"/>
      <point x="760" y="720" type="line"/>
      <point x="680" y="720" type="line"/>
      <point x="560" y="560" type="line"/>
      <point x="440" y="560" type="line"/>
      <point x="560" y="720" type="line"/>
      <point x="480" y="720" type="line"/>
      <point x="360" y="560" type="line"/>
      <point x="240" y="560" type="line"/>
      <point x="200" y="480" type="line"/>
      <point x="320" y="480" type="line"/>
      <point x="200" y="320" type="line"/>
      <point x="120" y="320" type="line"/>
    </contour>
    <contour>
      <point x="280" y="320" type="line"/>
      <point x="400" y="480" type="line"/>
      <point x="520" y="480" type="line"/>
      <point x="400" y="320" type="line"/>
    </contour>
  </outline>
</glyph>
<glyph name="dollar" format="1">
  <advance width="600"/>
  <unicode hex="0024"/>
  <outline>
    <contour>
      <point x="480" y="880" type="line"/>
      <point x="520" y="880" type="line"/>
      <point x="200" y="-80" type="line"/>
      <point x="160" y="-80" type="line"/>
    </contour>
    <component base="S"/>
  </outline>
</glyph>
<glyph name="quotesingle" format="1">
  <advance width="280"/>
  <unicode hex="0027"/>
  <outline>
    <contour>
      <point x="200" y="600" type="line"/>
      <point x="240" y="760" type="line"/>
      <point x="280" y="800" type="line"/>
      <point x="320" y="800" type="line"/>
      <point x="360" y="760" type="line"/>
      <point x="360" y="720" type="line"/>
      <point x="200" y="560" type="line"/>
    </contour>
  </outline>
</glyph>
<glyph name="parenleft" format="1">
  <advance width="480"/>
  <unicode hex="0028"/>
  <outline>
    <contour>
      <point x="240" y="-120" type="line"/>
      <point x="120" y="40" type="line"/>
      <point x="80" y="160" type="line"/>
      <point x="80" y="320" type="line"/>
      <point x="120" y="480" type="line"/>
      <point x="240" y="640" type="line"/>
      <point x="400" y="760" type="line"/>
      <point x="520" y="800" type="line"/>
      <point x="560" y="760" type="line"/>
      <point x="440" y="720" type="line"/>
      <point x="320" y="600" type="line"/>
      <point x="240" y="440" type="line"/>
      <point x="200" y="280" type="line"/>
      <point x="200" y="80" type="line"/>
      <point x="280" y="-80" type="line"/>
    </contour>
  </outline>
</glyph>
<glyph name="parenright" format="1">
  <advance width="480"/>
  <unicode hex="0029"/>
  <outline>
    <contour>
      <point x="240" y="800" type="line"/>
      <point x="360" y="640" type="line"/>
      <point x="400" y="520" type="line"/>
      <point x="400" y="360" type="line"/>
      <point x="360" y="200" type="line"/>
      <point x="240" y="40" type="line"/>
      <point x="80" y="-80" type="line"/>
      <point x="-40" y="-120" type="line"/>
      <point x="-80" y="-80" type="line"/>
      <point x="40" y="-40" type="line"/>
      <point x="160" y="80" type="line"/>
      <point x="240" y="240" type="line"/>
      <point x="280" y="400" type="line"/>
      <point x="280" y="600" type="line"/>
      <point x="200" y="760" type="line"/>
    </contour>
  </outline>
</glyph>
<glyph name="asterisk" format="1">
  <advance width="440"/>
  <unicode hex="002A"/>
  <outline>
    <contour>
      <point x="40" y="760" type="line"/>
      <point x="80" y="800" type="line"/>
      <point x="200" y="760" type="line"/>
      <point x="200" y="880" type="line"/>
      <point x="240" y="920" type="line"/>
      <point x="280" y="920" type="line"/>
      <point x="320" y="880" type="line"/>
      <point x="240" y="760" type="line"/>
      <point x="360" y="800" type="line"/>
      <point x="400" y="760" type="line"/>
      <point x="400" y="720" type="line"/>
      <point x="360" y="680" type="line"/>
      <point x="240" y="720" type="line"/>
      <point x="240" y="600" type="line"/>
      <point x="200" y="560" type="line"/>
      <point x="160" y="560" type="line"/>
      <point x="120" y="600" type="line"/>
      <point x="200" y="720" type="line"/>
      <point x="80" y="680" type="line"/>
      <point x="40" y="720" type="line"/>
    </contour>
  </outline>
</glyph>
<glyph name="plus" format="1">
  <advance width="600"/>
  <unicode hex="002B"/>
  <outline>
    <contour>
      <point x="0" y="360" type="line"/>
      <point x="240" y="360" type="line"/>
      <point x="240" y="600" type="line"/>
      <point x="320" y="600" type="line"/>
      <point x="320" y="360" type="line"/>
      <point x="560" y="360" type="line"/>
      <point x="560" y="280" type="line"/>
      <point x="320" y="280" type="line"/>
      <point x="320" y="40" type="line"/>
      <point x="240" y="40" type="line"/>
      <point x="240" y="280" type="line"/>
      <point x="0" y="280" type="line"/>
    </contour>
  </outline>
</glyph>
<glyph name="comma" format="1">
  <advance width="240"/>
  <unicode hex="002C"/>
  <outline>
    <contour>
      <point x="120" y="-120" type="line"/>
      <point x="0" y="-120" type="line"/>
      <point x="0" y="-80" type="line"/>
      <point x="80" y="-80" type="line"/>
      <point x="120" y="0" type="line"/>
      <point x="40" y="40" type="line"/>
      <point x="40" y="80" type="line"/>
      <point x="80" y="160" type="line"/>
      <point x="120" y="160" type="line"/>
      <point x="200" y="120" type="line"/>
      <point x="200" y="40" type="line"/>
    </contour>
  </outline>
</glyph>
<glyph name="hyphen" format="1">
  <advance width="320"/>
  <unicode hex="002D"/>
  <outline>
    <contour>
      <point x="40" y="320" type="line"/>
      <point x="280" y="320" type="line"/>
      <point x="280" y="240" type="line"/>
      <point x="40" y="240" type="line"/>
    </contour>
  </outline>
</glyph>
<glyph name="slash" format="1">
  <advance width="320"/>
  <unicode hex="002F"/>
  <outline>
    <contour>
      <point x="360" y="760" type="line"/>
      <point x="440" y="760" type="line"/>
      <point x="-40" y="-80" type="line"/>
      <point x="-120" y="-80" type="line"/>
    </contour>
  </outline>
</glyph>
<glyph name="one" format="1">
  <advance width="480"/>
  <unicode hex="0031"/>
  <outline>
    <contour>
      <point x="360" y="760" type="line"/>
      <point x="440" y="800" type="line"/>
      <point x="200" y="80" type="line"/>
      <point x="280" y="0" type="line"/>
      <point x="-40" y="0" type="line"/>
      <point x="80" y="80" type="line"/>
      <point x="240" y="560" type="line"/>
      <point x="120" y="560" type="line"/>
      <point x="120" y="600" type="line"/>
      <point x="280" y="680" type="line"/>
    </contour>
  </outline>
</glyph>
<glyph name="two" format="1">
  <advance width="640"/>
  <unicode hex="0032"/>
  <outline>
    <contour>
      <point x="200" y="640" type="line"/>
      <point x="200" y="480" type="line"/>
      <point x="160" y="480" type="line"/>
      <point x="80" y="600" type="line"/>
      <point x="120" y="720" type="line"/>
      <point x="280" y="800" type="line"/>
      <point x="400" y="800" type="line"/>
      <point x="560" y="720" type="line"/>
      <point x="600" y="600" type="line"/>
      <point x="600" y="520" type="line"/>
      <point x="440" y="320" type="line"/>
      <point x="280" y="200" type="line"/>
      <point x="80" y="80" type="line"/>
      <point x="320" y="40" type="line"/>
      <point x="480" y="240" type="line"/>
      <point x="520" y="240" type="line"/>
      <point x="440" y="-40" type="line"/>
      <point x="320" y="0" type="line"/>
      <point x="-80" y="0" type="line"/>
      <point x="-80" y="40" type="line"/>
      <point x="280" y="280" type="line"/>
      <point x="400" y="400" type="line"/>
      <point x="480" y="560" type="line"/>
      <point x="440" y="720" type="line"/>
      <point x="320" y="760" type="line"/>
      <point x="240" y="720" type="line"/>
    </contour>
  </outline>
</glyph>
<glyph name="four" format="1">
  <advance width="640"/>
  <unicode hex="0034"/>
  <outline>
    <contour>
      <point x="440" y="800" type="line"/>
      <point x="360" y="560" type="line"/>
      <point x="280" y="440" type="line"/>
      <point x="120" y="240" type="line"/>
      <point x="360" y="200" type="line"/>
      <point x="560" y="800" type="line"/>
      <point x="680" y="800" type="line"/>
      <point x="440" y="80" type="line"/>
      <point x="520" y="0" type="line"/>
      <point x="200" y="0" type="line"/>
      <point x="320" y="80" type="line"/>
      <point x="360" y="160" type="line"/>
      <point x="40" y="160" type="line"/>
      <point x="-40" y="240" type="line"/>
      <point x="200" y="440" type="line"/>
      <point x="280" y="560" type="line"/>
      <point x="320" y="800" type="line"/>
    </contour>
  </outline>
</glyph>
<glyph name="six" format="1">
  <advance width="680"/>
  <unicode hex="0036"/>
  <outline>
    <contour>
      <point x="160" y="360" type="line"/>
      <point x="280" y="480" type="line"/>
      <point x="400" y="520" type="line"/>
      <point x="520" y="480" type="line"/>
      <point x="600" y="360" type="line"/>
      <point x="600" y="200" type="line"/>
      <point x="480" y="80" type="line"/>
      <point x="320" y="0" type="line"/>
      <point x="240" y="0" type="line"/>
      <point x="80" y="80" type="line"/>
      <point x="40" y="200" type="line"/>
      <point x="40" y="360" type="line"/>
      <point x="120" y="560" type="line"/>
      <point x="280" y="720" type="line"/>
      <point x="440" y="800" type="line"/>
      <point x="520" y="800" type="line"/>
      <point x="680" y="720" type="line"/>
      <point x="680" y="680" type="line"/>
      <point x="600" y="560" type="line"/>
      <point x="560" y="560" type="line"/>
      <point x="560" y="720" type="line"/>
      <point x="480" y="760" type="line"/>
      <point x="400" y="720" type="line"/>
      <point x="240" y="520" type="line"/>
    </contour>
    <contour>
      <point x="240" y="360" type="line"/>
      <point x="160" y="280" type="line"/>
      <point x="160" y="200" type="line"/>
      <point x="200" y="80" type="line"/>
      <point x="280" y="40" type="line"/>
      <point x="360" y="80" type="line"/>
      <point x="480" y="200" type="line"/>
      <point x="480" y="360" type="line"/>
      <point x="400" y="440" type="line"/>
      <point x="320" y="440" type="line"/>
    </contour>
  </outline>
</glyph>
<glyph name="seven" format="1">
  <advance width="520"/>
  <unicode hex="0037"/>
  <outline>
    <contour>
      <point x="160" y="0" type="line"/>
      <point x="0" y="0" type="line"/>
      <point x="200" y="360" type="line"/>
      <point x="400" y="600" type="line"/>
      <point x="560" y="760" type="line"/>
      <point x="280" y="760" type="line"/>
      <point x="200" y="720" type="line"/>
      <point x="200" y="560" type="line"/>
      <point x="160" y="560" type="line"/>
      <point x="80" y="680" type="line"/>
      <point x="80" y="800" type="line"/>
      <point x="600" y="800" type="line"/>
      <point x="600" y="760" type="line"/>
      <point x="440" y="560" type="line"/>
      <point x="280" y="320" type="line"/>
    </contour>
  </outline>
</glyph>
<glyph name="less" format="1">
  <advance width="480"/>
  <unicode hex="003C"/>
  <outline>
    <contour>
      <point x="80" y="280" type="line"/>
      <point x="80" y="359" type="line"/>
      <point x="400" y="600" type="line"/>
      <point x="440" y="520" type="line"/>
      <point x="120" y="320" type="line"/>
      <point x="440" y="120" type="line"/>
      <point x="400" y="40" type="line"/>
    </contour>
  </outline>
</glyph>
<glyph name="equal" format="1">
  <advance width="560"/>
  <unicode hex="003D"/>
  <outline>
    <contour>
      <point x="520" y="360" type="line"/>
      <point x="40" y="360" type="line"/>
      <point x="40" y="440" type="line"/>
      <point x="520" y="440" type="line"/>
    </contour>
    <contour>
      <point x="520" y="200" type="line"/>
      <point x="40" y="200" type="line"/>
      <point x="40" y="280" type="line"/>
      <point x="520" y="280" type="line"/>
    </contour>
  </outline>
</glyph>
<glyph name="greater" format="1">
  <advance width="480"/>
  <unicode hex="003E"/>
  <outline>
    <contour>
      <point x="80" y="40" type="line"/>
      <point x="40" y="120" type="line"/>
      <point x="360" y="320" type="line"/>
      <point x="40" y="520" type="line"/>
      <point x="80" y="600" type="line"/>
      <point x="400" y="359" type="line"/>
      <point x="400" y="280" type="line"/>
    </contour>
  </outline>
</glyph>
<glyph name="question" format="1">
  <advance width="520"/>
  <unicode hex="003F"/>
  <outline>
    <contour>
      <point x="280" y="520" type="line"/>
      <point x="200" y="600" type="line"/>
      <point x="200" y="640" type="line"/>
      <point x="280" y="760" type="line"/>
      <point x="400" y="800" type="line"/>
      <point x="480" y="800" type="line"/>
      <point x="600" y="760" type="line"/>
      <point x="680" y="640" type="line"/>
      <point x="680" y="560" type="line"/>
      <point x="600" y="440" type="line"/>
      <point x="440" y="360" type="line"/>
      <point x="320" y="320" type="line"/>
      <point x="280" y="240" type="line"/>
      <point x="240" y="240" type="line"/>
      <point x="280" y="360" type="line"/>
      <point x="400" y="400" type="line"/>
      <point x="520" y="480" type="line"/>
      <point x="560" y="560" type="line"/>
      <point x="560" y="640" type="line"/>
      <point x="520" y="720" type="line"/>
      <point x="440" y="760" type="line"/>
      <point x="360" y="720" type="line"/>
      <point x="320" y="640" type="line"/>
      <point x="320" y="520" type="line"/>
    </contour>
    <component base="period" xOffset="160"/>
  </outline>
</glyph>
<glyph name="A" format="1">
  <advance width="800"/>
  <unicode hex="0041"/>
  <outline>
    <contour>
      <point x="240" y="0" type="line"/>
      <point x="-40" y="0" type="line"/>
      <point x="80" y="80" type="line"/>
      <point x="560" y="720" type="line"/>
      <point x="560" y="760" type="line"/>
      <point x="680" y="840" type="line"/>
      <point x="680" y="80" type="line"/>
      <point x="760" y="0" type="line"/>
      <point x="480" y="0" type="line"/>
      <point x="560" y="80" type="line"/>
      <point x="560" y="200" type="line"/>
      <point x="520" y="240" type="line"/>
      <point x="280" y="240" type="line"/>
      <point x="160" y="80" type="line"/>
    </contour>
    <contour>
      <point x="560" y="640" type="line"/>
      <point x="360" y="360" type="line"/>
      <point x="320" y="280" type="line"/>
      <point x="520" y="280" type="line"/>
      <point x="560" y="320" type="line"/>
    </contour>
    <contour>
      <point x="620" y="800" type="move" name="top"/>
    </contour>
  </outline>
</glyph>
<glyph name="B" format="1">
  <advance width="760"/>
  <unicode hex="0042"/>
  <outline>
    <contour>
      <point x="200" y="800" type="line"/>
      <point x="520" y="800" type="line"/>
      <point x="720" y="760" type="line"/>
      <point x="760" y="600" type="line"/>
      <point x="640" y="480" type="line"/>
      <point x="560" y="440" type="line"/>
      <point x="680" y="400" type="line"/>
      <point x="720" y="240" type="line"/>
      <point x="600" y="80" type="line"/>
      <point x="400" y="0" type="line"/>
      <point x="0" y="0" type="line"/>
      <point x="80" y="80" type="line"/>
      <point x="280" y="720" type="line"/>
    </contour>
    <contour>
      <point x="200" y="80" type="line"/>
      <point x="240" y="40" type="line"/>
      <point x="320" y="40" type="line"/>
      <point x="480" y="120" type="line"/>
      <point x="560" y="240" type="line"/>
      <point x="520" y="360" type="line"/>
      <point x="440" y="400" type="line"/>
      <point x="320" y="400" type="line"/>
      <point x="320" y="440" type="line"/>
      <point x="400" y="440" type="line"/>
      <point x="520" y="480" type="line"/>
      <point x="600" y="600" type="line"/>
      <point x="600" y="720" type="line"/>
      <point x="520" y="760" type="line"/>
      <point x="440" y="760" type="line"/>
      <point x="400" y="720" type="line"/>
    </contour>
  </outline>
</glyph>
<glyph name="D" format="1">
  <advance width="840"/>
  <unicode hex="0044"/>
  <outline>
    <contour>
      <point x="200" y="800" type="line"/>
      <point x="560" y="800" type="line"/>
      <point x="760" y="720" type="line"/>
      <point x="840" y="520" type="line"/>
      <point x="800" y="320" type="line"/>
      <point x="720" y="200" type="line"/>
      <point x="600" y="80" type="line"/>
      <point x="440" y="0" type="line"/>
      <point x="-40" y="0" type="line"/>
      <point x="80" y="80" type="line"/>
      <point x="280" y="720" type="line"/>
    </contour>
    <contour>
      <point x="680" y="440" type="line"/>
      <point x="680" y="560" type="line"/>
      <point x="640" y="720" type="line"/>
      <point x="560" y="760" type="line"/>
      <point x="440" y="760" type="line"/>
      <point x="400" y="720" type="line"/>
      <point x="200" y="80" type="line"/>
      <point x="240" y="40" type="line"/>
      <point x="400" y="40" type="line"/>
      <point x="480" y="80" type="line"/>
      <point x="600" y="200" type="line"/>
    </contour>
  </outline>
</glyph>
<glyph name="E" format="1">
  <advance width="720"/>
  <unicode hex="0045"/>
  <outline>
    <contour>
      <point x="640" y="240" type="line"/>
      <point x="600" y="-40" type="line"/>
      <point x="520" y="0" type="line"/>
      <point x="-40" y="0" type="line"/>
      <point x="80" y="80" type="line"/>
      <point x="280" y="720" type="line"/>
      <point x="200" y="800" type="line"/>
      <point x="600" y="800" type="line"/>
      <point x="760" y="840" type="line"/>
      <point x="800" y="600" type="line"/>
      <point x="760" y="600" type="line"/>
      <point x="640" y="760" type="line"/>
      <point x="440" y="760" type="line"/>
      <point x="400" y="720" type="line"/>
      <point x="320" y="480" type="line"/>
      <point x="320" y="440" type="line"/>
      <point x="480" y="440" type="line"/>
      <point x="560" y="520" type="line"/>
      <point x="560" y="320" type="line"/>
      <point x="480" y="400" type="line"/>
      <point x="320" y="400" type="line"/>
      <point x="280" y="360" type="line"/>
      <point x="200" y="80" type="line"/>
      <point x="240" y="40" type="line"/>
      <point x="480" y="40" type="line"/>
      <point x="600" y="240" type="line"/>
    </contour>
    <contour>
      <point x="520" y="800" type="move" name="top"/>
    </contour>
  </outline>
</glyph>
<glyph name="F" format="1">
  <advance width="640"/>
  <unicode hex="0046"/>
  <outline>
    <contour>
      <point x="-40" y="0" type="line"/>
      <point x="80" y="80" type="line"/>
      <point x="280" y="720" type="line"/>
      <point x="200" y="800" type="line"/>
      <point x="600" y="800" type="line"/>
      <point x="760" y="840" type="line"/>
      <point x="800" y="600" type="line"/>
      <point x="760" y="600" type="line"/>
      <point x="640" y="760" type="line"/>
      <point x="440" y="760" type="line"/>
      <point x="400" y="720" type="line"/>
      <point x="320" y="480" type="line"/>
      <point x="320" y="440" type="line"/>
      <point x="480" y="440" type="line"/>
      <point x="560" y="520" type="line"/>
      <point x="560" y="320" type="line"/>
      <point x="480" y="400" type="line"/>
      <point x="320" y="400" type="line"/>
      <point x="280" y="360" type="line"/>
      <point x="200" y="80" type="line"/>
      <point x="280" y="0" type="line"/>
    </contour>
  </outline>
</glyph>
<glyph name="H" format="1">
  <advance width="920"/>
  <unicode hex="0048"/>
  <outline>
    <contour>
      <point x="520" y="800" type="line"/>
      <point x="400" y="720" type="line"/>
      <point x="320" y="480" type="line"/>
      <point x="320" y="440" type="line"/>
      <point x="720" y="440" type="line"/>
      <point x="760" y="480" type="line"/>
      <point x="840" y="720" type="line"/>
      <point x="760" y="800" type="line"/>
      <point x="1080" y="800" type="line"/>
      <point x="960" y="720" type="line"/>
      <point x="760" y="80" type="line"/>
      <point x="840" y="0" type="line"/>
      <point x="520" y="0" type="line"/>
      <point x="640" y="80" type="line"/>
      <point x="720" y="360" type="line"/>
      <point x="720" y="400" type="line"/>
      <point x="320" y="400" type="line"/>
      <point x="280" y="360" type="line"/>
      <point x="200" y="80" type="line"/>
      <point x="280" y="0" type="line"/>
      <point x="-40" y="0" type="line"/>
      <point x="80" y="80" type="line"/>
      <point x="280" y="720" type="line"/>
      <point x="200" y="800" type="line"/>
    </contour>
  </outline>
</glyph>
<glyph name="I" format="1">
  <advance width="400"/>
  <unicode hex="0049"/>
  <outline>
    <contour>
      <point x="200" y="80" type="line"/>
      <point x="280" y="0" type="line"/>
      <point x="-40" y="0" type="line"/>
      <point x="80" y="80" type="line"/>
      <point x="280" y="720" type="line"/>
      <point x="200" y="800" type="line"/>
      <point x="520" y="800" type="line"/>
      <point x="400" y="720" type="line"/>
    </contour>
    <contour>
      <point x="360" y="800" type="move" name="top"/>
    </contour>
  </outline>
</glyph>
<glyph name="J" format="1">
  <advance width="400"/>
  <unicode hex="004A"/>
  <outline>
    <contour>
      <point x="0" y="-80" type="line"/>
      <point x="120" y="40" type="line"/>
      <point x="160" y="120" type="line"/>
      <point x="360" y="720" type="line"/>
      <point x="280" y="800" type="line"/>
      <point x="600" y="800" type="line"/>
      <point x="480" y="720" type="line"/>
      <point x="280" y="120" type="line"/>
      <point x="200" y="0" type="line"/>
      <point x="40" y="-120" type="line"/>
    </contour>
  </outline>
</glyph>
<glyph name="K" format="1">
  <advance width="760"/>
  <unicode hex="004B"/>
  <outline>
    <contour>
      <point x="200" y="80" type="line"/>
      <point x="280" y="0" type="line"/>
      <point x="-40" y="0" type="line"/>
      <point x="80" y="80" type="line"/>
      <point x="280" y="720" type="line"/>
      <point x="200" y="800" type="line"/>
      <point x="480" y="800" type="line"/>
      <point x="400" y="720" type="line"/>
    </contour>
    <contour>
      <point x="680" y="0" type="line"/>
      <point x="640" y="-40" type="line"/>
      <point x="520" y="80" type="line"/>
      <point x="440" y="280" type="line"/>
      <point x="320" y="400" type="line"/>
      <point x="320" y="440" type="line"/>
      <point x="680" y="720" type="line"/>
      <point x="600" y="800" type="line"/>
      <point x="880" y="800" type="line"/>
      <point x="400" y="440" type="line"/>
      <point x="560" y="320" type="line"/>
    </contour>
  </outline>
</glyph>
<glyph name="L" format="1">
  <advance width="600"/>
  <unicode hex="004C"/>
  <outline>
    <contour>
      <point x="480" y="0" type="line"/>
      <point x="-40" y="0" type="line"/>
      <point x="80" y="80" type="line"/>
      <point x="280" y="720" type="line"/>
      <point x="200" y="800" type="line"/>
      <point x="520" y="800" type="line"/>
      <point x="400" y="720" type="line"/>
      <point x="200" y="80" type="line"/>
      <point x="240" y="40" type="line"/>
      <point x="440" y="40" type="line"/>
      <point x="560" y="240" type="line"/>
      <point x="600" y="240" type="line"/>
      <point x="560" y="-40" type="line"/>
    </contour>
  </outline>
</glyph>
<glyph name="M" format="1">
  <advance width="1000"/>
  <unicode hex="004D"/>
  <outline>
    <contour>
      <point x="480" y="160" type="line"/>
      <point x="880" y="800" type="line"/>
      <point x="1120" y="800" type="line"/>
      <point x="1000" y="720" type="line"/>
      <point x="800" y="80" type="line"/>
      <point x="880" y="0" type="line"/>
      <point x="560" y="0" type="line"/>
      <point x="680" y="80" type="line"/>
      <point x="880" y="680" type="line"/>
      <point x="440" y="0" type="line"/>
      <point x="360" y="-40" type="line"/>
      <point x="360" y="760" type="line"/>
      <point x="160" y="80" type="line"/>
      <point x="240" y="0" type="line"/>
      <point x="-40" y="0" type="line"/>
      <point x="80" y="80" type="line"/>
      <point x="280" y="720" type="line"/>
      <point x="200" y="800" type="line"/>
      <point x="480" y="800" type="line"/>
    </contour>
  </outline>
</glyph>
<glyph name="Q" format="1">
  <advance width="840"/>
  <unicode hex="0051"/>
  <outline>
    <contour>
      <point x="440" y="0" type="line"/>
      <point x="600" y="80" type="line"/>
      <point x="720" y="200" type="line"/>
      <point x="800" y="320" type="line"/>
      <point x="840" y="520" type="line"/>
      <point x="760" y="720" type="line"/>
      <point x="560" y="800" type="line"/>
      <point x="440" y="800" type="line"/>
      <point x="280" y="720" type="line"/>
      <point x="160" y="600" type="line"/>
      <point x="80" y="480" type="line"/>
      <point x="40" y="280" type="line"/>
      <point x="120" y="80" type="line"/>
      <point x="320" y="0" type="line"/>
      <point x="360" y="-40" type="line"/>
      <point x="400" y="-80" type="line"/>
      <point x="480" y="-160" type="line"/>
      <point x="640" y="-200" type="line"/>
      <point x="800" y="-160" type="line"/>
      <point x="800" y="-120" type="line"/>
      <point x="680" y="-120" type="line"/>
      <point x="560" y="-80" type="line"/>
    </contour>
    <contour>
      <point x="680" y="560" type="line"/>
      <point x="680" y="440" type="line"/>
      <point x="600" y="200" type="line"/>
      <point x="480" y="80" type="line"/>
      <point x="400" y="40" type="line"/>
      <point x="320" y="40" type="line"/>
      <point x="240" y="80" type="line"/>
      <point x="200" y="240" type="line"/>
      <point x="200" y="360" type="line"/>
      <point x="280" y="600" type="line"/>
      <point x="480" y="760" type="line"/>
      <point x="560" y="760" type="line"/>
      <point x="640" y="720" type="line"/>
    </contour>
  </outline>
</glyph>
<glyph name="T" format="1">
  <advance width="680"/>
  <unicode hex="0054"/>
  <outline>
    <contour>
      <point x="840" y="600" type="line"/>
      <point x="800" y="600" type="line"/>
      <point x="720" y="720" type="line"/>
      <point x="560" y="760" type="line"/>
      <point x="360" y="80" type="line"/>
      <point x="440" y="0" type="line"/>
      <point x="120" y="0" type="line"/>
      <point x="240" y="80" type="line"/>
      <point x="440" y="760" type="line"/>
      <point x="240" y="720" type="line"/>
      <point x="200" y="600" type="line"/>
      <point x="160" y="600" type="line"/>
      <point x="160" y="840" type="line"/>
      <point x="320" y="800" type="line"/>
      <point x="640" y="800" type="line"/>
      <point x="800" y="840" type="line"/>
    </contour>
  </outline>
</glyph>
<glyph name="U" format="1">
  <advance width="840"/>
  <unicode hex="0055"/>
  <outline>
    <contour>
      <point x="680" y="240" type="line"/>
      <point x="600" y="120" type="line"/>
      <point x="520" y="40" type="line"/>
      <point x="400" y="0" type="line"/>
      <point x="320" y="0" type="line"/>
      <point x="160" y="40" type="line"/>
      <point x="80" y="120" type="line"/>
      <point x="80" y="240" type="line"/>
      <point x="240" y="720" type="line"/>
      <point x="160" y="800" type="line"/>
      <point x="480" y="800" type="line"/>
      <point x="360" y="720" type="line"/>
      <point x="200" y="240" type="line"/>
      <point x="200" y="160" type="line"/>
      <point x="240" y="80" type="line"/>
      <point x="320" y="40" type="line"/>
      <point x="360" y="40" type="line"/>
      <point x="480" y="80" type="line"/>
      <point x="520" y="120" type="line"/>
      <point x="600" y="240" type="line"/>
      <point x="720" y="720" type="line"/>
      <point x="640" y="800" type="line"/>
      <point x="960" y="800" type="line"/>
      <point x="840" y="720" type="line"/>
    </contour>
    <contour>
      <point x="600" y="800" type="move" name="top"/>
    </contour>
  </outline>
</glyph>
<glyph name="V" format="1">
  <advance width="680"/>
  <unicode hex="0056"/>
  <outline>
    <contour>
      <point x="600" y="720" type="line"/>
      <point x="520" y="800" type="line"/>
      <point x="800" y="800" type="line"/>
      <point x="680" y="720" type="line"/>
      <point x="160" y="0" type="line"/>
      <point x="80" y="-40" type="line"/>
      <point x="80" y="720" type="line"/>
      <point x="0" y="800" type="line"/>
      <point x="280" y="800" type="line"/>
      <point x="200" y="720" type="line"/>
      <point x="200" y="160" type="line"/>
    </contour>
  </outline>
</glyph>
<glyph name="W" format="1">
  <advance width="960"/>
  <unicode hex="0057"/>
  <outline>
    <contour>
      <point x="600" y="760" type="line"/>
      <point x="600" y="240" type="line"/>
      <point x="880" y="720" type="line"/>
      <point x="800" y="800" type="line"/>
      <point x="1080" y="800" type="line"/>
      <point x="960" y="720" type="line"/>
      <point x="520" y="0" type="line"/>
      <point x="480" y="-40" type="line"/>
      <point x="480" y="600" type="line"/>
      <point x="160" y="0" type="line"/>
      <point x="80" y="-40" type="line"/>
      <point x="80" y="720" type="line"/>
      <point x="0" y="800" type="line"/>
      <point x="280" y="800" type="line"/>
      <point x="200" y="720" type="line"/>
      <point x="200" y="200" type="line"/>
      <point x="480" y="720" type="line"/>
    </contour>
  </outline>
</glyph>
<glyph name="X" format="1">
  <advance width="840"/>
  <unicode hex="0058"/>
  <outline>
    <contour>
      <point x="720" y="720" type="line"/>
      <point x="640" y="800" type="line"/>
      <point x="920" y="800" type="line"/>
      <point x="480" y="400" type="line"/>
      <point x="640" y="80" type="line"/>
      <point x="720" y="0" type="line"/>
      <point x="400" y="0" type="line"/>
      <point x="480" y="80" type="line"/>
      <point x="440" y="360" type="line"/>
      <point x="400" y="360" type="line"/>
      <point x="160" y="80" type="line"/>
      <point x="240" y="0" type="line"/>
      <point x="-40" y="0" type="line"/>
      <point x="360" y="400" type="line"/>
      <point x="240" y="720" type="line"/>
      <point x="160" y="800" type="line"/>
      <point x="480" y="800" type="line"/>
      <point x="400" y="720" type="line"/>
      <point x="400" y="440" type="line"/>
      <point x="440" y="440" type="line"/>
    </contour>
  </outline>
</glyph>
<glyph name="Y" format="1">
  <advance width="760"/>
  <unicode hex="0059"/>
  <outline>
    <contour>
      <point x="400" y="520" type="line"/>
      <point x="400" y="440" type="line"/>
      <point x="440" y="440" type="line"/>
      <point x="680" y="720" type="line"/>
      <point x="600" y="800" type="line"/>
      <point x="880" y="800" type="line"/>
      <point x="760" y="720" type="line"/>
      <point x="440" y="360" type="line"/>
      <point x="360" y="80" type="line"/>
      <point x="440" y="0" type="line"/>
      <point x="120" y="0" type="line"/>
      <point x="240" y="80" type="line"/>
      <point x="320" y="360" type="line"/>
      <point x="240" y="720" type="line"/>
      <point x="160" y="800" type="line"/>
      <point x="440" y="800" type="line"/>
      <point x="360" y="720" type="line"/>
    </contour>
    <contour>
      <point x="560" y="800" type="move" name="top"/>
    </contour>
  </outline>
</glyph>
<glyph name="Z" format="1">
  <advance width="720"/>
  <unicode hex="005A"/>
  <outline>
    <contour>
      <point x="120" y="80" type="line"/>
      <point x="440" y="40" type="line"/>
      <point x="560" y="240" type="line"/>
      <point x="600" y="240" type="line"/>
      <point x="560" y="-40" type="line"/>
      <point x="480" y="0" type="line"/>
      <point x="-40" y="0" type="line"/>
      <point x="-40" y="40" type="line"/>
      <point x="600" y="760" type="line"/>
      <point x="360" y="760" type="line"/>
      <point x="240" y="600" type="line"/>
      <point x="200" y="600" type="line"/>
      <point x="240" y="840" type="line"/>
      <point x="400" y="800" type="line"/>
      <point x="800" y="800" type="line"/>
    </contour>
  </outline>
</glyph>
<glyph name="bracketleft" format="1">
  <advance width="360"/>
  <unicode hex="005B"/>
  <outline>
    <contour>
      <point x="240" y="800" type="line"/>
      <point x="480" y="800" type="line"/>
      <point x="480" y="760" type="line"/>
      <point x="280" y="720" type="line"/>
      <point x="40" y="0" type="line"/>
      <point x="40" y="-80" type="line"/>
      <point x="160" y="-120" type="line"/>
      <point x="160" y="-160" type="line"/>
      <point x="-80" y="-160" type="line"/>
    </contour>
  </outline>
</glyph>
<glyph name="backslash" format="1">
  <advance width="160"/>
  <unicode hex="005C"/>
  <outline>
    <contour>
      <point x="120" y="-80" type="line"/>
      <point x="40" y="-80" type="line"/>
      <point x="40" y="760" type="line"/>
      <point x="120" y="760" type="line"/>
    </contour>
  </outline>
</glyph>
<glyph name="bracketright" format="1">
  <advance width="360"/>
  <unicode hex="005D"/>
  <outline>
    <contour>
      <point x="120" y="-160" type="line"/>
      <point x="-120" y="-160" type="line"/>
      <point x="-120" y="-120" type="line"/>
      <point x="80" y="-80" type="line"/>
      <point x="320" y="640" type="line"/>
      <point x="320" y="720" type="line"/>
      <point x="200" y="760" type="line"/>
      <point x="200" y="800" type="line"/>
      <point x="440" y="800" type="line"/>
    </contour>
  </outline>
</glyph>
<glyph name="underscore" format="1">
  <advance width="800"/>
  <unicode hex="005F"/>
  <outline>
    <contour>
      <point x="80" y="-80" type="line"/>
      <point x="720" y="-80" type="line"/>
      <point x="720" y="-120" type="line"/>
      <point x="80" y="-120" type="line"/>
    </contour>
  </outline>
</glyph>
<glyph name="grave" format="1">
  <advance width="840"/>
  <unicode hex="0060"/>
  <outline>
    <contour>
      <point x="320" y="640" type="line"/>
      <point x="280" y="640" type="line"/>
      <point x="160" y="760" type="line"/>
      <point x="160" y="800" type="line"/>
      <point x="200" y="840" type="line"/>
      <point x="240" y="840" type="line"/>
    </contour>
    <contour>
      <point x="240" y="560" type="move" name="_top"/>
    </contour>
  </outline>
</glyph>
<glyph name="b" format="1">
  <advance width="640"/>
  <unicode hex="0062"/>
  <outline>
    <contour>
      <point x="360" y="440" type="line"/>
      <point x="440" y="480" type="line"/>
      <point x="480" y="360" type="line"/>
      <point x="400" y="200" type="line"/>
      <point x="240" y="80" type="line"/>
      <point x="160" y="80" type="line"/>
      <point x="120" y="120" type="line"/>
      <point x="120" y="160" type="line"/>
      <point x="240" y="320" type="line"/>
    </contour>
    <contour>
      <point x="320" y="800" type="line"/>
      <point x="160" y="400" type="line"/>
      <point x="-40" y="0" type="line"/>
      <point x="0" y="-40" type="line"/>
      <point x="80" y="80" type="line"/>
      <point x="160" y="0" type="line"/>
      <point x="320" y="0" type="line"/>
      <point x="520" y="160" type="line"/>
      <point x="600" y="360" type="line"/>
      <point x="560" y="520" type="line"/>
      <point x="480" y="560" type="line"/>
      <point x="360" y="520" type="line"/>
      <point x="280" y="440" type="line"/>
      <point x="480" y="840" type="line"/>
      <point x="200" y="840" type="line"/>
      <point x="200" y="800" type="line"/>
    </contour>
  </outline>
</glyph>
<glyph name="d" format="1">
  <advance width="720"/>
  <unicode hex="0064"/>
  <outline>
    <contour>
      <point x="400" y="0" type="line"/>
      <point x="440" y="0" type="line"/>
      <point x="520" y="40" type="line"/>
      <point x="720" y="240" type="line"/>
      <point x="680" y="280" type="line"/>
      <point x="480" y="80" type="line"/>
      <point x="440" y="80" type="line"/>
      <point x="800" y="840" type="line"/>
      <point x="520" y="840" type="line"/>
      <point x="520" y="800" type="line"/>
      <point x="640" y="800" type="line"/>
      <point x="520" y="440" type="line"/>
      <point x="480" y="520" type="line"/>
      <point x="320" y="560" type="line"/>
      <point x="120" y="400" type="line"/>
      <point x="40" y="200" type="line"/>
      <point x="80" y="40" type="line"/>
      <point x="160" y="0" type="line"/>
      <point x="240" y="0" type="line"/>
      <point x="360" y="120" type="line"/>
      <point x="360" y="40" type="line"/>
    </contour>
    <contour>
      <point x="240" y="80" type="line"/>
      <point x="200" y="80" type="line"/>
      <point x="160" y="200" type="line"/>
      <point x="240" y="360" type="line"/>
      <point x="360" y="480" type="line"/>
      <point x="440" y="480" type="line"/>
      <point x="480" y="400" type="line"/>
      <point x="480" y="360" type="line"/>
      <point x="360" y="200" type="line"/>
    </contour>
  </outline>
</glyph>
<glyph name="g" format="1">
  <advance width="600"/>
  <unicode hex="0067"/>
  <outline>
    <contour>
      <point x="80" y="120" type="line"/>
      <point x="80" y="80" type="line"/>
      <point x="120" y="40" type="line"/>
      <point x="-80" y="-40" type="line"/>
      <point x="-120" y="-120" type="line"/>
      <point x="-80" y="-240" type="line"/>
      <point x="80" y="-320" type="line"/>
      <point x="160" y="-320" type="line"/>
      <point x="320" y="-280" type="line"/>
      <point x="400" y="-160" type="line"/>
      <point x="400" y="-80" type="line"/>
      <point x="200" y="80" type="line"/>
      <point x="200" y="120" type="line"/>
      <point x="320" y="120" type="line"/>
      <point x="520" y="240" type="line"/>
      <point x="560" y="360" type="line"/>
      <point x="520" y="480" type="line"/>
      <point x="640" y="480" type="line"/>
      <point x="640" y="520" type="line"/>
      <point x="480" y="520" type="line"/>
      <point x="320" y="560" type="line"/>
      <point x="120" y="440" type="line"/>
      <point x="80" y="320" type="line"/>
      <point x="160" y="160" type="line"/>
    </contour>
    <contour>
      <point x="320" y="480" type="line"/>
      <point x="400" y="480" type="line"/>
      <point x="440" y="360" type="line"/>
      <point x="440" y="320" type="line"/>
      <point x="320" y="200" type="line"/>
      <point x="240" y="200" type="line"/>
      <point x="200" y="320" type="line"/>
      <point x="200" y="360" type="line"/>
    </contour>
    <contour>
      <point x="160" y="0" type="line"/>
      <point x="280" y="-120" type="line"/>
      <point x="280" y="-200" type="line"/>
      <point x="160" y="-280" type="line"/>
      <point x="40" y="-200" type="line"/>
      <point x="0" y="-120" type="line"/>
      <point x="40" y="-40" type="line"/>
    </contour>
  </outline>
</glyph>
<glyph name="j" format="1">
  <advance width="400"/>
  <unicode hex="006A"/>
  <outline>
    <contour>
      <point x="440" y="640" type="line"/>
      <point x="480" y="640" type="line"/>
      <point x="520" y="720" type="line"/>
      <point x="520" y="760" type="line"/>
      <point x="440" y="800" type="line"/>
      <point x="400" y="800" type="line"/>
      <point x="360" y="720" type="line"/>
      <point x="360" y="680" type="line"/>
    </contour>
    <contour>
      <point x="0" y="320" type="line"/>
      <point x="40" y="280" type="line"/>
      <point x="240" y="480" type="line"/>
      <point x="280" y="480" type="line"/>
      <point x="40" y="-80" type="line"/>
      <point x="-40" y="-240" type="line"/>
      <point x="-80" y="-240" type="line"/>
      <point x="-80" y="-160" type="line"/>
      <point x="-120" y="-120" type="line"/>
      <point x="-200" y="-160" type="line"/>
      <point x="-200" y="-280" type="line"/>
      <point x="-80" y="-320" type="line"/>
      <point x="0" y="-280" type="line"/>
      <point x="120" y="-160" type="line"/>
      <point x="400" y="480" type="line"/>
      <point x="400" y="520" type="line"/>
      <point x="360" y="560" type="line"/>
      <point x="200" y="520" type="line"/>
    </contour>
  </outline>
</glyph>
<glyph name="l" format="1">
  <advance width="400"/>
  <unicode hex="006C"/>
  <outline>
    <contour>
      <point x="120" y="80" type="line"/>
      <point x="160" y="80" type="line"/>
      <point x="360" y="280" type="line"/>
      <point x="400" y="240" type="line"/>
      <point x="200" y="40" type="line"/>
      <point x="80" y="0" type="line"/>
      <point x="0" y="40" type="line"/>
      <point x="0" y="80" type="line"/>
      <point x="320" y="800" type="line"/>
      <point x="200" y="800" type="line"/>
      <point x="200" y="840" type="line"/>
      <point x="480" y="840" type="line"/>
    </contour>
  </outline>
</glyph>
<glyph name="n" format="1">
  <advance width="760"/>
  <unicode hex="006E"/>
  <outline>
    <contour>
      <point x="0" y="320" type="line"/>
      <point x="40" y="280" type="line"/>
      <point x="240" y="480" type="line"/>
      <point x="280" y="480" type="line"/>
      <point x="40" y="40" type="line"/>
      <point x="80" y="0" type="line"/>
      <point x="160" y="0" type="line"/>
      <point x="320" y="320" type="line"/>
      <point x="440" y="440" type="line"/>
      <point x="520" y="480" type="line"/>
      <point x="560" y="440" type="line"/>
      <point x="360" y="80" type="line"/>
      <point x="360" y="40" type="line"/>
      <point x="400" y="0" type="line"/>
      <point x="480" y="0" type="line"/>
      <point x="560" y="40" type="line"/>
      <point x="760" y="240" type="line"/>
      <point x="720" y="280" type="line"/>
      <point x="520" y="80" type="line"/>
      <point x="480" y="80" type="line"/>
      <point x="680" y="400" type="line"/>
      <point x="680" y="520" type="line"/>
      <point x="560" y="560" type="line"/>
      <point x="440" y="520" type="line"/>
      <point x="320" y="400" type="line"/>
      <point x="360" y="480" type="line"/>
      <point x="360" y="520" type="line"/>
      <point x="320" y="560" type="line"/>
      <point x="200" y="520" type="line"/>
    </contour>
    <contour>
      <point x="510" y="560" type="move" name="top"/>
    </contour>
  </outline>
</glyph>
<glyph name="o" format="1">
  <advance width="640"/>
  <unicode hex="006F"/>
  <outline>
    <contour>
      <point x="360" y="480" type="line"/>
      <point x="440" y="480" type="line"/>
      <point x="480" y="360" type="line"/>
      <point x="400" y="200" type="line"/>
      <point x="280" y="80" type="line"/>
      <point x="200" y="80" type="line"/>
      <point x="160" y="200" type="line"/>
      <point x="240" y="360" type="line"/>
    </contour>
    <contour>
      <point x="200" y="0" type="line"/>
      <point x="280" y="0" type="line"/>
      <point x="480" y="120" type="line"/>
      <point x="600" y="360" type="line"/>
      <point x="520" y="520" type="line"/>
      <point x="360" y="560" type="line"/>
      <point x="160" y="440" type="line"/>
      <point x="40" y="200" type="line"/>
      <point x="120" y="40" type="line"/>
    </contour>
    <contour>
      <point x="430" y="560" type="move" name="top"/>
    </contour>
  </outline>
</glyph>
<glyph name="r" format="1">
  <advance width="520"/>
  <unicode hex="0072"/>
  <outline>
    <contour>
      <point x="0" y="320" type="line"/>
      <point x="40" y="280" type="line"/>
      <point x="240" y="480" type="line"/>
      <point x="280" y="480" type="line"/>
      <point x="40" y="40" type="line"/>
      <point x="80" y="0" type="line"/>
      <point x="160" y="0" type="line"/>
      <point x="320" y="320" type="line"/>
      <point x="440" y="400" type="line"/>
      <point x="560" y="400" type="line"/>
      <point x="600" y="520" type="line"/>
      <point x="520" y="560" type="line"/>
      <point x="440" y="520" type="line"/>
      <point x="320" y="360" type="line"/>
      <point x="280" y="360" type="line"/>
      <point x="360" y="480" type="line"/>
      <point x="360" y="520" type="line"/>
      <point x="320" y="560" type="line"/>
      <point x="200" y="520" type="line"/>
    </contour>
  </outline>
</glyph>
<glyph name="s" format="1">
  <advance width="480"/>
  <unicode hex="0073"/>
  <outline>
    <contour>
      <point x="80" y="40" type="line"/>
      <point x="80" y="160" type="line"/>
      <point x="40" y="200" type="line"/>
      <point x="-40" y="160" type="line"/>
      <point x="-40" y="40" type="line"/>
      <point x="40" y="0" type="line"/>
      <point x="120" y="0" type="line"/>
      <point x="240" y="40" type="line"/>
      <point x="320" y="120" type="line"/>
      <point x="320" y="200" type="line"/>
      <point x="280" y="400" type="line"/>
      <point x="280" y="480" type="line"/>
      <point x="360" y="520" type="line"/>
      <point x="360" y="400" type="line"/>
      <point x="400" y="360" type="line"/>
      <point x="480" y="400" type="line"/>
      <point x="480" y="520" type="line"/>
      <point x="360" y="560" type="line"/>
      <point x="200" y="520" type="line"/>
      <point x="160" y="440" type="line"/>
      <point x="160" y="360" type="line"/>
      <point x="200" y="200" type="line"/>
      <point x="200" y="120" type="line"/>
      <point x="120" y="40" type="line"/>
    </contour>
  </outline>
</glyph>
<glyph name="t" format="1">
  <advance width="440"/>
  <unicode hex="0074"/>
  <outline>
    <contour>
      <point x="120" y="80" type="line"/>
      <point x="320" y="480" type="line"/>
      <point x="440" y="480" type="line"/>
      <point x="440" y="520" type="line"/>
      <point x="320" y="520" type="line"/>
      <point x="400" y="680" type="line"/>
      <point x="320" y="680" type="line"/>
      <point x="280" y="560" type="line"/>
      <point x="200" y="520" type="line"/>
      <point x="120" y="520" type="line"/>
      <point x="120" y="480" type="line"/>
      <point x="200" y="480" type="line"/>
      <point x="0" y="80" type="line"/>
      <point x="0" y="40" type="line"/>
      <point x="40" y="0" type="line"/>
      <point x="120" y="0" type="line"/>
      <point x="200" y="40" type="line"/>
      <point x="400" y="240" type="line"/>
      <point x="360" y="280" type="line"/>
      <point x="160" y="80" type="line"/>
    </contour>
  </outline>
</glyph>
<glyph name="u" format="1">
  <advance width="760"/>
  <unicode hex="0075"/>
  <outline>
    <contour>
      <point x="760" y="240" type="line"/>
      <point x="720" y="280" type="line"/>
      <point x="520" y="80" type="line"/>
      <point x="480" y="80" type="line"/>
      <point x="720" y="480" type="line"/>
      <point x="680" y="520" type="line"/>
      <point x="600" y="520" type="line"/>
      <point x="440" y="240" type="line"/>
      <point x="280" y="80" type="line"/>
      <point x="240" y="80" type="line"/>
      <point x="200" y="160" type="line"/>
      <point x="400" y="480" type="line"/>
      <point x="400" y="520" type="line"/>
      <point x="320" y="560" type="line"/>
      <point x="200" y="520" type="line"/>
      <point x="0" y="320" type="line"/>
      <point x="40" y="280" type="line"/>
      <point x="240" y="480" type="line"/>
      <point x="280" y="480" type="line"/>
      <point x="80" y="160" type="line"/>
      <point x="120" y="40" type="line"/>
      <point x="200" y="0" type="line"/>
      <point x="280" y="0" type="line"/>
      <point x="400" y="120" type="line"/>
      <point x="400" y="40" type="line"/>
      <point x="440" y="0" type="line"/>
      <point x="480" y="0" type="line"/>
      <point x="560" y="40" type="line"/>
    </contour>
    <contour>
      <point x="510" y="560" type="move" name="top"/>
    </contour>
  </outline>
</glyph>
<glyph name="v" format="1">
  <advance width="600"/>
  <unicode hex="0076"/>
  <outline>
    <contour>
      <point x="520" y="400" type="line"/>
      <point x="480" y="280" type="line"/>
      <point x="320" y="120" type="line"/>
      <point x="200" y="80" type="line"/>
      <point x="160" y="80" type="line"/>
      <point x="400" y="440" type="line"/>
      <point x="400" y="520" type="line"/>
      <point x="320" y="560" type="line"/>
      <point x="200" y="520" type="line"/>
      <point x="0" y="320" type="line"/>
      <point x="40" y="280" type="line"/>
      <point x="240" y="480" type="line"/>
      <point x="280" y="480" type="line"/>
      <point x="40" y="80" type="line"/>
      <point x="40" y="40" type="line"/>
      <point x="80" y="0" type="line"/>
      <point x="160" y="0" type="line"/>
      <point x="360" y="80" type="line"/>
      <point x="520" y="240" type="line"/>
      <point x="600" y="400" type="line"/>
      <point x="600" y="480" type="line"/>
      <point x="560" y="520" type="line"/>
      <point x="480" y="520" type="line"/>
      <point x="440" y="440" type="line"/>
      <point x="480" y="400" type="line"/>
    </contour>
  </outline>
</glyph>
<glyph name="w" format="1">
  <advance width="880"/>
  <unicode hex="0077"/>
  <outline>
    <contour>
      <point x="800" y="400" type="line"/>
      <point x="760" y="280" type="line"/>
      <point x="600" y="120" type="line"/>
      <point x="520" y="80" type="line"/>
      <point x="480" y="80" type="line"/>
      <point x="640" y="480" type="line"/>
      <point x="600" y="520" type="line"/>
      <point x="520" y="520" type="line"/>
      <point x="440" y="280" type="line"/>
      <point x="240" y="80" type="line"/>
      <point x="200" y="80" type="line"/>
      <point x="360" y="480" type="line"/>
      <point x="360" y="520" type="line"/>
      <point x="280" y="560" type="line"/>
      <point x="160" y="520" type="line"/>
      <point x="0" y="320" type="line"/>
      <point x="40" y="280" type="line"/>
      <point x="200" y="480" type="line"/>
      <point x="240" y="480" type="line"/>
      <point x="80" y="80" type="line"/>
      <point x="80" y="40" type="line"/>
      <point x="120" y="0" type="line"/>
      <point x="200" y="0" type="line"/>
      <point x="280" y="40" type="line"/>
      <point x="400" y="160" type="line"/>
      <point x="360" y="40" type="line"/>
      <point x="400" y="0" type="line"/>
      <point x="480" y="0" type="line"/>
      <point x="640" y="80" type="line"/>
      <point x="800" y="240" type="line"/>
      <point x="880" y="400" type="line"/>
      <point x="880" y="480" type="line"/>
      <point x="840" y="520" type="line"/>
      <point x="760" y="520" type="line"/>
      <point x="720" y="440" type="line"/>
      <point x="760" y="400" type="line"/>
    </contour>
  </outline>
</glyph>
<glyph name="x" format="1">
  <advance width="600"/>
  <unicode hex="0078"/>
  <outline>
    <contour>
      <point x="560" y="560" type="line"/>
      <point x="360" y="320" type="line"/>
      <point x="360" y="280" type="line"/>
      <point x="640" y="480" type="line"/>
    </contour>
    <contour>
      <point x="40" y="-40" type="line"/>
      <point x="280" y="240" type="line"/>
      <point x="280" y="40" type="line"/>
      <point x="320" y="0" type="line"/>
      <point x="400" y="0" type="line"/>
      <point x="560" y="160" type="line"/>
      <point x="520" y="200" type="line"/>
      <point x="440" y="120" type="line"/>
      <point x="400" y="120" type="line"/>
      <point x="320" y="240" type="line"/>
      <point x="320" y="520" type="line"/>
      <point x="280" y="560" type="line"/>
      <point x="200" y="520" type="line"/>
      <point x="0" y="320" type="line"/>
      <point x="40" y="280" type="line"/>
      <point x="160" y="400" type="line"/>
      <point x="200" y="400" type="line"/>
      <point x="280" y="280" type="line"/>
      <point x="-40" y="40" type="line"/>
    </contour>
  </outline>
</glyph>
<glyph name="y" format="1">
  <advance width="680"/>
  <unicode hex="0079"/>
  <outline>
    <contour>
      <point x="480" y="320" type="line"/>
      <point x="280" y="120" type="line"/>
      <point x="240" y="80" type="line"/>
      <point x="200" y="80" type="line"/>
      <point x="400" y="480" type="line"/>
      <point x="400" y="520" type="line"/>
      <point x="320" y="560" type="line"/>
      <point x="200" y="520" type="line"/>
      <point x="0" y="320" type="line"/>
      <point x="40" y="280" type="line"/>
      <point x="240" y="480" type="line"/>
      <point x="280" y="480" type="line"/>
      <point x="80" y="80" type="line"/>
      <point x="80" y="40" type="line"/>
      <point x="120" y="0" type="line"/>
      <point x="200" y="0" type="line"/>
      <point x="280" y="40" type="line"/>
      <point x="440" y="200" type="line"/>
      <point x="280" y="-80" type="line"/>
      <point x="200" y="-200" type="line"/>
      <point x="160" y="-240" type="line"/>
      <point x="120" y="-240" type="line"/>
      <point x="120" y="-160" type="line"/>
      <point x="80" y="-120" type="line"/>
      <point x="0" y="-160" type="line"/>
      <point x="0" y="-280" type="line"/>
      <point x="80" y="-320" type="line"/>
      <point x="120" y="-320" type="line"/>
      <point x="240" y="-240" type="line"/>
      <point x="360" y="-80" type="line"/>
      <point x="720" y="480" type="line"/>
      <point x="680" y="520" type="line"/>
      <point x="600" y="520" type="line"/>
    </contour>
    <contour>
      <point x="520" y="560" type="move" name="top"/>
    </contour>
  </outline>
</glyph>
<glyph name="bar" format="1">
  <advance width="160"/>
  <unicode hex="007C"/>
  <outline>
    <contour>
      <point x="200" y="760" type="line"/>
      <point x="-80" y="-80" type="line"/>
      <point x="-40" y="-80" type="line"/>
      <point x="240" y="760" type="line"/>
    </contour>
  </outline>
</glyph>
<glyph name="exclamdown" format="1">
  <advance width="240"/>
  <unicode hex="00A1"/>
  <outline>
    <contour>
      <point x="-80" y="-320" type="line"/>
      <point x="-160" y="-320" type="line"/>
      <point x="-200" y="-280" type="line"/>
      <point x="80" y="240" type="line"/>
      <point x="120" y="240" type="line"/>
      <point x="-40" y="-280" type="line"/>
    </contour>
    <component base="period" xOffset="40" yOffset="320"/>
  </outline>
</glyph>
<glyph name="yen" format="1">
  <advance width="760"/>
  <unicode hex="00A5"/>
  <outline>
    <contour>
      <point x="160" y="400" type="line"/>
      <point x="160" y="360" type="line"/>
      <point x="600" y="360" type="line"/>
      <point x="600" y="400" type="line"/>
      <point x="480" y="400" type="line"/>
      <point x="760" y="720" type="line"/>
      <point x="880" y="800" type="line"/>
      <point x="600" y="800" type="line"/>
      <point x="680" y="720" type="line"/>
      <point x="440" y="440" type="line"/>
      <point x="400" y="440" type="line"/>
      <point x="400" y="520" type="line"/>
      <point x="360" y="720" type="line"/>
      <point x="440" y="800" type="line"/>
      <point x="160" y="800" type="line"/>
      <point x="240" y="720" type="line"/>
      <point x="320" y="400" type="line"/>
    </contour>
    <contour>
      <point x="120" y="280" type="line"/>
      <point x="120" y="240" type="line"/>
      <point x="280" y="240" type="line"/>
      <point x="240" y="80" type="line"/>
      <point x="120" y="0" type="line"/>
      <point x="440" y="0" type="line"/>
      <point x="360" y="80" type="line"/>
      <point x="400" y="240" type="line"/>
      <point x="600" y="240" type="line"/>
      <point x="600" y="280" type="line"/>
    </contour>
  </outline>
</glyph>
<glyph name="section" format="1">
  <advance width="560"/>
  <unicode hex="00A7"/>
  <outline>
    <contour>
      <point x="640" y="600" type="line"/>
      <point x="600" y="600" type="line"/>
      <point x="520" y="720" type="line"/>
      <point x="440" y="720" type="line"/>
      <point x="360" y="680" type="line"/>
      <point x="360" y="600" type="line"/>
      <point x="400" y="480" type="line"/>
      <point x="480" y="280" type="line"/>
      <point x="480" y="200" type="line"/>
      <point x="400" y="80" type="line"/>
      <point x="240" y="40" type="line"/>
      <point x="320" y="-80" type="line"/>
      <point x="320" y="-200" type="line"/>
      <point x="240" y="-280" type="line"/>
      <point x="80" y="-320" type="line"/>
      <point x="0" y="-280" type="line"/>
      <point x="-40" y="-320" type="line"/>
      <point x="-80" y="-120" type="line"/>
      <point x="-40" y="-120" type="line"/>
      <point x="40" y="-240" type="line"/>
      <point x="120" y="-240" type="line"/>
      <point x="200" y="-200" type="line"/>
      <point x="200" y="-120" type="line"/>
      <point x="160" y="0" type="line"/>
      <point x="80" y="200" type="line"/>
      <point x="80" y="280" type="line"/>
      <point x="160" y="400" type="line"/>
      <point x="320" y="440" type="line"/>
      <point x="240" y="560" type="line"/>
      <point x="240" y="680" type="line"/>
      <point x="320" y="760" type="line"/>
      <point x="480" y="800" type="line"/>
      <point x="560" y="760" type="line"/>
      <point x="600" y="800" type="line"/>
    </contour>
    <contour>
      <point x="200" y="320" type="line"/>
      <point x="200" y="160" type="line"/>
      <point x="240" y="80" type="line"/>
      <point x="280" y="80" type="line"/>
      <point x="360" y="160" type="line"/>
      <point x="360" y="320" type="line"/>
      <point x="320" y="400" type="line"/>
      <point x="280" y="400" type="line"/>
    </contour>
  </outline>
</glyph>
<glyph name="dieresis" format="1">
  <advance width="833"/>
  <unicode hex="00A8"/>
  <outline>
    <contour>
      <point x="220" y="800" type="line"/>
      <point x="300" y="800" type="line"/>
      <point x="300" y="720" type="line"/>
      <point x="260" y="680" type="line"/>
      <point x="220" y="680" type="line"/>
      <point x="180" y="720" type="line"/>
      <point x="180" y="760" type="line"/>
    </contour>
    <contour>
      <point x="380" y="800" type="line"/>
      <point x="460" y="800" type="line"/>
      <point x="460" y="720" type="line"/>
      <point x="420" y="680" type="line"/>
      <point x="380" y="680" type="line"/>
      <point x="340" y="720" type="line"/>
      <point x="340" y="760" type="line"/>
    </contour>
    <contour>
      <point x="320" y="560" type="move" name="_top"/>
    </contour>
  </outline>
</glyph>
<glyph name="guillemotleft" format="1">
  <advance width="520"/>
  <unicode hex="00AB"/>
  <outline>
    <contour>
      <point x="40" y="320" type="line"/>
      <point x="320" y="600" type="line"/>
      <point x="360" y="520" type="line"/>
      <point x="120" y="320" type="line"/>
      <point x="240" y="120" type="line"/>
      <point x="200" y="40" type="line"/>
    </contour>
    <contour>
      <point x="240" y="280" type="line"/>
      <point x="240" y="360" type="line"/>
      <point x="480" y="560" type="line"/>
      <point x="520" y="480" type="line"/>
      <point x="280" y="320" type="line"/>
      <point x="400" y="160" type="line"/>
      <point x="360" y="80" type="line"/>
    </contour>
  </outline>
</glyph>
<glyph name="degree" format="1">
  <advance width="480"/>
  <unicode hex="00B0"/>
  <outline>
    <contour>
      <point x="80" y="760" type="line"/>
      <point x="80" y="680" type="line"/>
      <point x="200" y="560" type="line"/>
      <point x="280" y="560" type="line"/>
      <point x="400" y="680" type="line"/>
      <point x="400" y="760" type="line"/>
      <point x="280" y="880" type="line"/>
      <point x="200" y="880" type="line"/>
    </contour>
    <contour>
      <point x="160" y="680" type="line"/>
      <point x="160" y="760" type="line"/>
      <point x="240" y="840" type="line"/>
      <point x="320" y="760" type="line"/>
      <point x="320" y="680" type="line"/>
      <point x="240" y="600" type="line"/>
    </contour>
  </outline>
</glyph>
<glyph name="acute" format="1">
  <advance width="840"/>
  <unicode hex="00B4"/>
  <outline>
    <contour>
      <point x="240" y="640" type="line"/>
      <point x="400" y="800" type="line"/>
      <point x="440" y="800" type="line"/>
      <point x="480" y="760" type="line"/>
      <point x="480" y="720" type="line"/>
      <point x="280" y="640" type="line"/>
    </contour>
    <contour>
      <point x="320" y="560" type="move" name="_top"/>
    </contour>
  </outline>
</glyph>
<glyph name="paragraph" format="1">
  <advance width="520"/>
  <unicode hex="00B6"/>
  <outline>
    <contour>
      <point x="520" y="760" type="line"/>
      <point x="440" y="760" type="line"/>
      <point x="120" y="-320" type="line"/>
      <point x="80" y="-320" type="line"/>
      <point x="280" y="360" type="line"/>
      <point x="200" y="360" type="line"/>
      <point x="120" y="400" type="line"/>
      <point x="80" y="520" type="line"/>
      <point x="120" y="680" type="line"/>
      <point x="240" y="760" type="line"/>
      <point x="360" y="800" type="line"/>
      <point x="560" y="800" type="line"/>
      <point x="240" y="-320" type="line"/>
      <point x="200" y="-320" type="line"/>
    </contour>
  </outline>
</glyph>
<glyph name="periodcentered" format="1">
  <advance width="200"/>
  <unicode hex="00B7"/>
  <outline>
    <contour>
      <point x="80" y="200" type="line"/>
      <point x="0" y="240" type="line"/>
      <point x="0" y="280" type="line"/>
      <point x="40" y="360" type="line"/>
      <point x="80" y="360" type="line"/>
      <point x="160" y="320" type="line"/>
      <point x="160" y="280" type="line"/>
      <point x="120" y="200" type="line"/>
    </contour>
  </outline>
</glyph>
<glyph name="cedilla" format="1">
  <advance width="833"/>
  <unicode hex="00B8"/>
  <outline>
    <contour>
      <point x="310" y="-240" type="line"/>
      <point x="350" y="-160" type="line"/>
      <point x="350" y="-80" type="line"/>
      <point x="310" y="-40" type="line"/>
      <point x="450" y="100" type="line"/>
      <point x="410" y="140" type="line"/>
      <point x="270" y="-40" type="line"/>
      <point x="270" y="-80" type="line"/>
      <point x="310" y="-120" type="line"/>
      <point x="270" y="-200" type="line"/>
      <point x="230" y="-200" type="line"/>
      <point x="190" y="-120" type="line"/>
      <point x="150" y="-160" type="line"/>
      <point x="190" y="-240" type="line"/>
    </contour>
    <contour>
      <point x="320" y="40" type="move" name="_bottom"/>
    </contour>
  </outline>
</glyph>
<glyph name="guillemotright" format="1">
  <advance width="520"/>
  <unicode hex="00BB"/>
  <outline>
    <contour>
      <point x="200" y="40" type="line"/>
      <point x="160" y="120" type="line"/>
      <point x="400" y="320" type="line"/>
      <point x="280" y="520" type="line"/>
      <point x="320" y="600" type="line"/>
      <point x="480" y="320" type="line"/>
    </contour>
    <contour>
      <point x="40" y="80" type="line"/>
      <point x="0" y="160" type="line"/>
      <point x="240" y="320" type="line"/>
      <point x="120" y="480" type="line"/>
      <point x="160" y="560" type="line"/>
      <point x="280" y="360" type="line"/>
      <point x="280" y="280" type="line"/>
    </contour>
  </outline>
</glyph>
<glyph name="onequarter" format="1">
  <advance width="760"/>
  <unicode hex="00BC"/>
  <outline>
    <contour>
      <point x="360" y="800" type="line"/>
      <point x="240" y="480" type="line"/>
      <point x="320" y="400" type="line"/>
      <point x="40" y="400" type="line"/>
      <point x="160" y="480" type="line"/>
      <point x="240" y="680" type="line"/>
      <point x="160" y="680" type="line"/>
      <point x="160" y="720" type="line"/>
      <point x="280" y="760" type="line"/>
    </contour>
    <contour>
      <point x="640" y="400" type="line"/>
      <point x="600" y="280" type="line"/>
      <point x="480" y="200" type="line"/>
      <point x="560" y="160" type="line"/>
      <point x="680" y="400" type="line"/>
      <point x="760" y="400" type="line"/>
      <point x="600" y="80" type="line"/>
      <point x="680" y="0" type="line"/>
      <point x="400" y="0" type="line"/>
      <point x="520" y="80" type="line"/>
      <point x="560" y="120" type="line"/>
      <point x="400" y="120" type="line"/>
      <point x="360" y="160" type="line"/>
      <point x="520" y="280" type="line"/>
      <point x="560" y="400" type="line"/>
    </contour>
    <component base="fraction" xOffset="200"/>
  </outline>
</glyph>
<glyph name="onehalf" format="1">
  <advance width="760"/>
  <unicode hex="00BD"/>
  <outline>
    <contour>
      <point x="320" y="800" type="line"/>
      <point x="200" y="480" type="line"/>
      <point x="280" y="400" type="line"/>
      <point x="0" y="400" type="line"/>
      <point x="120" y="480" type="line"/>
      <point x="200" y="680" type="line"/>
      <point x="120" y="680" type="line"/>
      <point x="120" y="720" type="line"/>
      <point x="240" y="760" type="line"/>
    </contour>
    <contour>
      <point x="480" y="280" type="line"/>
      <point x="480" y="160" type="line"/>
      <point x="440" y="160" type="line"/>
      <point x="400" y="240" type="line"/>
      <point x="400" y="280" type="line"/>
      <point x="440" y="360" type="line"/>
      <point x="520" y="400" type="line"/>
      <point x="640" y="400" type="line"/>
      <point x="720" y="320" type="line"/>
      <point x="720" y="240" type="line"/>
      <point x="640" y="160" type="line"/>
      <point x="400" y="40" type="line"/>
      <point x="520" y="40" type="line"/>
      <point x="640" y="120" type="line"/>
      <point x="680" y="120" type="line"/>
      <point x="640" y="0" type="line"/>
      <point x="320" y="0" type="line"/>
      <point x="320" y="40" type="line"/>
      <point x="520" y="160" type="line"/>
      <point x="600" y="240" type="line"/>
      <point x="600" y="320" type="line"/>
      <point x="560" y="360" type="line"/>
    </contour>
    <component base="fraction" xOffset="160"/>
  </outline>
</glyph>
<glyph name="threequarters" format="1">
  <advance width="760"/>
  <unicode hex="00BE"/>
  <outline>
    <contour>
      <point x="640" y="400" type="line"/>
      <point x="600" y="280" type="line"/>
      <point x="480" y="200" type="line"/>
      <point x="560" y="160" type="line"/>
      <point x="680" y="400" type="line"/>
      <point x="760" y="400" type="line"/>
      <point x="600" y="80" type="line"/>
      <point x="680" y="0" type="line"/>
      <point x="400" y="0" type="line"/>
      <point x="520" y="80" type="line"/>
      <point x="560" y="120" type="line"/>
      <point x="400" y="120" type="line"/>
      <point x="360" y="160" type="line"/>
      <point x="520" y="280" type="line"/>
      <point x="560" y="400" type="line"/>
    </contour>
    <contour>
      <point x="320" y="640" type="line"/>
      <point x="400" y="600" type="line"/>
      <point x="400" y="520" type="line"/>
      <point x="320" y="440" type="line"/>
      <point x="200" y="400" type="line"/>
      <point x="160" y="400" type="line"/>
      <point x="80" y="440" type="line"/>
      <point x="40" y="520" type="line"/>
      <point x="120" y="560" type="line"/>
      <point x="160" y="560" type="line"/>
      <point x="160" y="480" type="line"/>
      <point x="200" y="440" type="line"/>
      <point x="280" y="480" type="line"/>
      <point x="320" y="560" type="line"/>
      <point x="280" y="600" type="line"/>
      <point x="200" y="600" type="line"/>
      <point x="200" y="640" type="line"/>
      <point x="280" y="640" type="line"/>
      <point x="320" y="720" type="line"/>
      <point x="320" y="760" type="line"/>
      <point x="280" y="800" type="line"/>
      <point x="200" y="760" type="line"/>
      <point x="200" y="680" type="line"/>
      <point x="160" y="680" type="line"/>
      <point x="120" y="720" type="line"/>
      <point x="160" y="800" type="line"/>
      <point x="280" y="840" type="line"/>
      <point x="400" y="800" type="line"/>
      <point x="440" y="720" type="line"/>
      <point x="400" y="680" type="line"/>
    </contour>
    <component base="fraction" xOffset="200"/>
  </outline>
</glyph>
<glyph name="questiondown" format="1">
  <advance width="520"/>
  <unicode hex="00BF"/>
  <outline>
    <contour>
      <point x="240" y="-40" type="line"/>
      <point x="320" y="-120" type="line"/>
      <point x="320" y="-160" type="line"/>
      <point x="240" y="-280" type="line"/>
      <point x="120" y="-320" type="line"/>
      <point x="40" y="-320" type="line"/>
      <point x="-80" y="-280" type="line"/>
      <point x="-160" y="-160" type="line"/>
      <point x="-160" y="-80" type="line"/>
      <point x="-80" y="40" type="line"/>
      <point x="80" y="120" type="line"/>
      <point x="200" y="160" type="line"/>
      <point x="240" y="240" type="line"/>
      <point x="280" y="240" type="line"/>
      <point x="240" y="120" type="line"/>
      <point x="120" y="80" type="line"/>
      <point x="0" y="0" type="line"/>
      <point x="-40" y="-80" type="line"/>
      <point x="-40" y="-160" type="line"/>
      <point x="0" y="-240" type="line"/>
      <point x="80" y="-280" type="line"/>
      <point x="160" y="-240" type="line"/>
      <point x="200" y="-160" type="line"/>
      <point x="200" y="-40" type="line"/>
    </contour>
    <contour>
      <point x="280" y="320" type="line"/>
      <point x="200" y="360" type="line"/>
      <point x="200" y="400" type="line"/>
      <point x="240" y="480" type="line"/>
      <point x="280" y="480" type="line"/>
      <point x="360" y="440" type="line"/>
      <point x="360" y="400" type="line"/>
      <point x="320" y="320" type="line"/>
    </contour>
  </outline>
</glyph>
<glyph name="AE" format="1">
  <advance width="1080"/>
  <unicode hex="00C6"/>
  <outline>
    <contour>
      <point x="240" y="0" type="line"/>
      <point x="-40" y="0" type="line"/>
      <point x="80" y="80" type="line"/>
      <point x="560" y="720" type="line"/>
      <point x="480" y="800" type="line"/>
      <point x="680" y="800" type="line"/>
      <point x="680" y="80" type="line"/>
      <point x="760" y="0" type="line"/>
      <point x="480" y="0" type="line"/>
      <point x="560" y="80" type="line"/>
      <point x="560" y="200" type="line"/>
      <point x="520" y="240" type="line"/>
      <point x="280" y="240" type="line"/>
      <point x="160" y="80" type="line"/>
    </contour>
    <contour>
      <point x="560" y="640" type="line"/>
      <point x="360" y="360" type="line"/>
      <point x="320" y="280" type="line"/>
      <point x="520" y="280" type="line"/>
      <point x="560" y="320" type="line"/>
    </contour>
    <contour>
      <point x="680" y="800" type="line"/>
      <point x="960" y="800" type="line"/>
      <point x="1120" y="840" type="line"/>
      <point x="1160" y="600" type="line"/>
      <point x="1120" y="600" type="line"/>
      <point x="1000" y="760" type="line"/>
      <point x="680" y="760" type="line"/>
    </contour>
    <contour>
      <point x="680" y="440" type="line"/>
      <point x="840" y="440" type="line"/>
      <point x="920" y="520" type="line"/>
      <point x="920" y="320" type="line"/>
      <point x="840" y="400" type="line"/>
      <point x="680" y="400" type="line"/>
    </contour>
    <contour>
      <point x="1000" y="240" type="line"/>
      <point x="960" y="-40" type="line"/>
      <point x="880" y="0" type="line"/>
      <point x="679" y="0" type="line"/>
      <point x="679" y="40" type="line"/>
      <point x="840" y="40" type="line"/>
      <point x="960" y="240" type="line"/>
    </contour>
    <contour>
      <point x="620" y="800" type="move" name="top"/>
    </contour>
  </outline>
</glyph>
<glyph name="Oslash" format="1">
  <advance width="960"/>
  <unicode hex="00D8"/>
  <outline>
    <contour>
      <point x="760" y="880" type="line"/>
      <point x="800" y="880" type="line"/>
      <point x="200" y="-80" type="line"/>
      <point x="160" y="-80" type="line"/>
    </contour>
    <component base="O" xOffset="40"/>
  </outline>
</glyph>
<glyph name="ae" format="1">
  <advance width="920"/>
  <unicode hex="00E6"/>
  <outline>
    <contour>
      <point x="920" y="360" type="line"/>
      <point x="920" y="440" type="line"/>
      <point x="880" y="520" type="line"/>
      <point x="720" y="560" type="line"/>
      <point x="560" y="440" type="line"/>
      <point x="520" y="440" type="line"/>
      <point x="480" y="520" type="line"/>
      <point x="320" y="560" type="line"/>
      <point x="120" y="400" type="line"/>
      <point x="40" y="200" type="line"/>
      <point x="80" y="40" type="line"/>
      <point x="160" y="0" type="line"/>
      <point x="240" y="0" type="line"/>
      <point x="400" y="160" type="line"/>
      <point x="360" y="0" type="line"/>
      <point x="400" y="0" type="line"/>
      <point x="440" y="120" type="line"/>
      <point x="520" y="0" type="line"/>
      <point x="600" y="0" type="line"/>
      <point x="680" y="40" type="line"/>
      <point x="840" y="200" type="line"/>
      <point x="800" y="240" type="line"/>
      <point x="640" y="80" type="line"/>
      <point x="560" y="80" type="line"/>
      <point x="520" y="200" type="line"/>
      <point x="600" y="360" type="line"/>
      <point x="720" y="480" type="line"/>
      <point x="800" y="480" type="line"/>
      <point x="800" y="360" type="line"/>
      <point x="720" y="320" type="line"/>
      <point x="600" y="320" type="line"/>
      <point x="600" y="280" type="line"/>
      <point x="800" y="280" type="line"/>
    </contour>
    <contour>
      <point x="240" y="80" type="line"/>
      <point x="200" y="80" type="line"/>
      <point x="160" y="200" type="line"/>
      <point x="240" y="360" type="line"/>
      <point x="360" y="480" type="line"/>
      <point x="440" y="480" type="line"/>
      <point x="480" y="400" type="line"/>
      <point x="480" y="360" type="line"/>
      <point x="360" y="200" type="line"/>
    </contour>
    <contour>
      <point x="760" y="560" type="move" name="top"/>
    </contour>
  </outline>
</glyph>
<glyph name="dotlessi" format="1">
  <advance width="440"/>
  <unicode hex="0131"/>
  <outline>
    <contour>
      <point x="0" y="320" type="line"/>
      <point x="200" y="520" type="line"/>
      <point x="320" y="560" type="line"/>
      <point x="400" y="520" type="line"/>
      <point x="400" y="480" type="line"/>
      <point x="160" y="80" type="line"/>
      <point x="200" y="80" type="line"/>
      <point x="400" y="280" type="line"/>
      <point x="440" y="240" type="line"/>
      <point x="240" y="40" type="line"/>
      <point x="160" y="0" type="line"/>
      <point x="80" y="0" type="line"/>
      <point x="40" y="40" type="line"/>
      <point x="40" y="80" type="line"/>
      <point x="280" y="480" type="line"/>
      <point x="240" y="480" type="line"/>
      <point x="40" y="280" type="line"/>
    </contour>
    <contour>
      <point x="370" y="560" type="move" name="top"/>
    </contour>
  </outline>
</glyph>
<glyph name="OE" format="1">
  <advance width="1000"/>
  <unicode hex="0152"/>
  <outline>
    <contour>
      <point x="880" y="800" type="line"/>
      <point x="1040" y="840" type="line"/>
      <point x="1080" y="600" type="line"/>
      <point x="1040" y="600" type="line"/>
      <point x="920" y="760" type="line"/>
      <point x="760" y="760" type="line"/>
      <point x="720" y="720" type="line"/>
      <point x="640" y="480" type="line"/>
      <point x="640" y="440" type="line"/>
      <point x="760" y="440" type="line"/>
      <point x="840" y="520" type="line"/>
      <point x="840" y="320" type="line"/>
      <point x="760" y="400" type="line"/>
      <point x="640" y="400" type="line"/>
      <point x="600" y="360" type="line"/>
      <point x="520" y="80" type="line"/>
      <point x="560" y="40" type="line"/>
      <point x="760" y="40" type="line"/>
      <point x="880" y="240" type="line"/>
      <point x="920" y="240" type="line"/>
      <point x="880" y="-40" type="line"/>
      <point x="800" y="0" type="line"/>
      <point x="360" y="0" type="line"/>
      <point x="120" y="80" type="line"/>
      <point x="40" y="280" type="line"/>
      <point x="80" y="480" type="line"/>
      <point x="160" y="600" type="line"/>
      <point x="280" y="720" type="line"/>
      <point x="440" y="800" type="line"/>
    </contour>
    <contour>
      <point x="600" y="760" type="line"/>
      <point x="480" y="760" type="line"/>
      <point x="280" y="600" type="line"/>
      <point x="200" y="360" type="line"/>
      <point x="200" y="240" type="line"/>
      <point x="240" y="120" type="line"/>
      <point x="400" y="40" type="line"/>
    </contour>
    <contour>
      <point x="840" y="800" type="move" name="top"/>
    </contour>
  </outline>
</glyph>
<glyph name="oe" format="1">
  <advance width="920"/>
  <unicode hex="0153"/>
  <outline>
    <contour>
      <point x="360" y="480" type="line"/>
      <point x="440" y="480" type="line"/>
      <point x="480" y="360" type="line"/>
      <point x="400" y="200" type="line"/>
      <point x="280" y="80" type="line"/>
      <point x="200" y="80" type="line"/>
      <point x="160" y="200" type="line"/>
      <point x="240" y="360" type="line"/>
    </contour>
    <contour>
      <point x="200" y="0" type="line"/>
      <point x="280" y="0" type="line"/>
      <point x="480" y="120" type="line"/>
      <point x="600" y="360" type="line"/>
      <point x="520" y="520" type="line"/>
      <point x="360" y="560" type="line"/>
      <point x="160" y="440" type="line"/>
      <point x="40" y="200" type="line"/>
      <point x="120" y="40" type="line"/>
    </contour>
    <contour>
      <point x="920" y="360" type="line"/>
      <point x="920" y="440" type="line"/>
      <point x="880" y="520" type="line"/>
      <point x="720" y="560" type="line"/>
      <point x="520" y="440" type="line"/>
      <point x="400" y="200" type="line"/>
      <point x="440" y="40" type="line"/>
      <point x="520" y="0" type="line"/>
      <point x="600" y="0" type="line"/>
      <point x="680" y="40" type="line"/>
      <point x="840" y="200" type="line"/>
      <point x="800" y="240" type="line"/>
      <point x="640" y="80" type="line"/>
      <point x="560" y="80" type="line"/>
      <point x="520" y="200" type="line"/>
      <point x="600" y="360" type="line"/>
      <point x="720" y="480" type="line"/>
      <point x="800" y="480" type="line"/>
      <point x="800" y="360" type="line"/>
      <point x="720" y="320" type="line"/>
      <point x="600" y="320" type="line"/>
      <point x="600" y="280" type="line"/>
      <point x="800" y="280" type="line"/>
    </contour>
    <contour>
      <point x="760" y="560" type="move" name="top"/>
    </contour>
  </outline>
</glyph>
<glyph name="circumflex" format="1">
  <advance width="833"/>
  <unicode hex="02C6"/>
  <outline>
    <contour>
      <point x="160" y="640" type="line"/>
      <point x="400" y="800" type="line"/>
      <point x="480" y="800" type="line"/>
      <point x="480" y="640" type="line"/>
      <point x="430" y="640" type="line"/>
      <point x="430" y="730" type="line"/>
      <point x="200" y="640" type="line"/>
    </contour>
    <contour>
      <point x="320" y="560" type="move" name="_top"/>
    </contour>
  </outline>
</glyph>
<glyph name="ring" format="1">
  <advance width="840"/>
  <unicode hex="02DA"/>
  <outline>
    <contour>
      <point x="220" y="760" type="line"/>
      <point x="220" y="720" type="line"/>
      <point x="300" y="640" type="line"/>
      <point x="340" y="640" type="line"/>
      <point x="420" y="720" type="line"/>
      <point x="420" y="760" type="line"/>
      <point x="340" y="840" type="line"/>
      <point x="300" y="840" type="line"/>
    </contour>
    <contour>
      <point x="260" y="720" type="line"/>
      <point x="260" y="760" type="line"/>
      <point x="300" y="800" type="line"/>
      <point x="340" y="800" type="line"/>
      <point x="380" y="760" type="line"/>
      <point x="380" y="720" type="line"/>
      <point x="340" y="680" type="line"/>
      <point x="300" y="680" type="line"/>
    </contour>
    <contour>
      <point x="320" y="560" type="move" name="_top"/>
    </contour>
  </outline>
</glyph>
<glyph name="tilde" format="1">
  <advance width="833"/>
  <unicode hex="02DC"/>
  <outline>
    <contour>
      <point x="560" y="800" type="line"/>
      <point x="600" y="760" type="line"/>
      <point x="520" y="680" type="line"/>
      <point x="440" y="680" type="line"/>
      <point x="360" y="760" type="line"/>
      <point x="280" y="680" type="line"/>
      <point x="240" y="720" type="line"/>
      <point x="320" y="800" type="line"/>
      <point x="400" y="800" type="line"/>
      <point x="480" y="720" type="line"/>
    </contour>
    <contour>
      <point x="400" y="560" type="move" name="_top"/>
    </contour>
  </outline>
</glyph>
<glyph name="endash" format="1">
  <advance width="480"/>
  <unicode hex="2013"/>
  <outline>
    <contour>
      <point x="80" y="320" type="line"/>
      <point x="400" y="320" type="line"/>
      <point x="400" y="280" type="line"/>
      <point x="80" y="280" type="line"/>
    </contour>
  </outline>
</glyph>
<glyph name="emdash" format="1">
  <advance width="800"/>
  <unicode hex="2014"/>
  <outline>
    <contour>
      <point x="80" y="320" type="line"/>
      <point x="720" y="320" type="line"/>
      <point x="720" y="280" type="line"/>
      <point x="80" y="280" type="line"/>
    </contour>
  </outline>
</glyph>
<glyph name="quoteleft" format="1">
  <advance width="200"/>
  <unicode hex="2018"/>
  <outline>
    <contour>
      <point x="200" y="800" type="line"/>
      <point x="240" y="800" type="line"/>
      <point x="160" y="600" type="line"/>
      <point x="120" y="560" type="line"/>
      <point x="80" y="560" type="line"/>
      <point x="40" y="600" type="line"/>
      <point x="40" y="640" type="line"/>
    </contour>
  </outline>
</glyph>
<glyph name="quoteright" format="1">
  <advance width="200"/>
  <unicode hex="2019"/>
  <outline>
    <contour>
      <point x="120" y="560" type="line"/>
      <point x="200" y="760" type="line"/>
      <point x="240" y="800" type="line"/>
      <point x="280" y="800" type="line"/>
      <point x="320" y="760" type="line"/>
      <point x="320" y="720" type="line"/>
      <point x="160" y="560" type="line"/>
    </contour>
  </outline>
</glyph>
<glyph name="quotesinglbase" format="1">
  <advance width="200"/>
  <unicode hex="201A"/>
  <outline>
    <contour>
      <point x="80" y="40" type="line"/>
      <point x="120" y="40" type="line"/>
      <point x="40" y="-160" type="line"/>
      <point x="0" y="-200" type="line"/>
      <point x="-40" y="-200" type="line"/>
      <point x="-80" y="-160" type="line"/>
      <point x="-80" y="-120" type="line"/>
    </contour>
  </outline>
</glyph>
<glyph name="dagger" format="1">
  <advance width="440"/>
  <unicode hex="2020"/>
  <outline>
    <contour>
      <point x="40" y="560" type="line"/>
      <point x="80" y="600" type="line"/>
      <point x="240" y="560" type="line"/>
      <point x="280" y="800" type="line"/>
      <point x="320" y="840" type="line"/>
      <point x="360" y="840" type="line"/>
      <point x="400" y="800" type="line"/>
      <point x="280" y="560" type="line"/>
      <point x="440" y="600" type="line"/>
      <point x="480" y="560" type="line"/>
      <point x="480" y="520" type="line"/>
      <point x="440" y="480" type="line"/>
      <point x="280" y="520" type="line"/>
      <point x="160" y="40" type="line"/>
      <point x="120" y="0" type="line"/>
      <point x="80" y="0" type="line"/>
      <point x="40" y="40" type="line"/>
      <point x="240" y="520" type="line"/>
      <point x="80" y="480" type="line"/>
      <point x="40" y="520" type="line"/>
    </contour>
  </outline>
</glyph>
<glyph name="daggerdbl" format="1">
  <advance width="440"/>
  <unicode hex="2021"/>
  <outline>
    <contour>
      <point x="400" y="280" type="line"/>
      <point x="360" y="240" type="line"/>
      <point x="200" y="280" type="line"/>
      <point x="160" y="40" type="line"/>
      <point x="120" y="0" type="line"/>
      <point x="80" y="0" type="line"/>
      <point x="40" y="40" type="line"/>
      <point x="160" y="280" type="line"/>
      <point x="0" y="240" type="line"/>
      <point x="-40" y="280" type="line"/>
      <point x="-40" y="320" type="line"/>
      <point x="0" y="360" type="line"/>
      <point x="160" y="320" type="line"/>
      <point x="240" y="520" type="line"/>
      <point x="80" y="480" type="line"/>
      <point x="40" y="520" type="line"/>
      <point x="40" y="560" type="line"/>
      <point x="80" y="600" type="line"/>
      <point x="240" y="560" type="line"/>
      <point x="280" y="800" type="line"/>
      <point x="320" y="840" type="line"/>
      <point x="360" y="840" type="line"/>
      <point x="400" y="800" type="line"/>
      <point x="280" y="560" type="line"/>
      <point x="440" y="600" type="line"/>
      <point x="480" y="560" type="line"/>
      <point x="480" y="520" type="line"/>
      <point x="440" y="480" type="line"/>
      <point x="280" y="520" type="line"/>
      <point x="200" y="320" type="line"/>
      <point x="360" y="360" type="line"/>
      <point x="400" y="320" type="line"/>
    </contour>
  </outline>
</glyph>
<glyph name="bullet" format="1">
  <advance width="440"/>
  <unicode hex="2022"/>
  <outline>
    <contour>
      <point x="200" y="160" type="line"/>
      <point x="80" y="240" type="line"/>
      <point x="80" y="320" type="line"/>
      <point x="160" y="440" type="line"/>
      <point x="240" y="440" type="line"/>
      <point x="360" y="360" type="line"/>
      <point x="360" y="280" type="line"/>
      <point x="280" y="160" type="line"/>
    </contour>
  </outline>
</glyph>
<glyph name="perthousand" format="1">
  <advance width="1120"/>
  <unicode hex="2030"/>
  <outline>
    <contour>
      <point x="280" y="800" type="line"/>
      <point x="360" y="800" type="line"/>
      <point x="400" y="760" type="line"/>
      <point x="440" y="640" type="line"/>
      <point x="320" y="440" type="line"/>
      <point x="200" y="400" type="line"/>
      <point x="120" y="400" type="line"/>
      <point x="80" y="440" type="line"/>
      <point x="40" y="560" type="line"/>
      <point x="160" y="760" type="line"/>
    </contour>
    <contour>
      <point x="280" y="760" type="line"/>
      <point x="240" y="720" type="line"/>
      <point x="160" y="560" type="line"/>
      <point x="160" y="480" type="line"/>
      <point x="200" y="440" type="line"/>
      <point x="240" y="480" type="line"/>
      <point x="320" y="640" type="line"/>
      <point x="320" y="720" type="line"/>
    </contour>
    <contour>
      <point x="560" y="400" type="line"/>
      <point x="640" y="400" type="line"/>
      <point x="680" y="360" type="line"/>
      <point x="720" y="240" type="line"/>
      <point x="600" y="40" type="line"/>
      <point x="480" y="0" type="line"/>
      <point x="400" y="0" type="line"/>
      <point x="360" y="40" type="line"/>
      <point x="320" y="160" type="line"/>
      <point x="440" y="360" type="line"/>
    </contour>
    <contour>
      <point x="560" y="360" type="line"/>
      <point x="520" y="320" type="line"/>
      <point x="440" y="160" type="line"/>
      <point x="440" y="80" type="line"/>
      <point x="480" y="40" type="line"/>
      <point x="520" y="80" type="line"/>
      <point x="600" y="240" type="line"/>
      <point x="600" y="320" type="line"/>
    </contour>
    <contour>
      <point x="960" y="400" type="line"/>
      <point x="1040" y="400" type="line"/>
      <point x="1080" y="360" type="line"/>
      <point x="1120" y="240" type="line"/>
      <point x="1000" y="40" type="line"/>
      <point x="880" y="0" type="line"/>
      <point x="800" y="0" type="line"/>
      <point x="760" y="40" type="line"/>
      <point x="720" y="160" type="line"/>
      <point x="840" y="360" type="line"/>
    </contour>
    <contour>
      <point x="960" y="360" type="line"/>
      <point x="920" y="320" type="line"/>
      <point x="840" y="160" type="line"/>
      <point x="840" y="80" type="line"/>
      <point x="880" y="40" type="line"/>
      <point x="920" y="80" type="line"/>
      <point x="1000" y="240" type="line"/>
      <point x="1000" y="320" type="line"/>
    </contour>
    <component base="fraction" xOffset="160"/>
  </outline>
</glyph>
<glyph name="fraction" format="1">
  <advance width="280"/>
  <unicode hex="2044"/>
  <outline>
    <contour>
      <point x="520" y="840" type="line"/>
      <point x="600" y="840" type="line"/>
      <point x="-80" y="-40" type="line"/>
      <point x="-160" y="-40" type="line"/>
    </contour>
  </outline>
</glyph>
<glyph name="Euro" format="1">
  <advance width="760"/>
  <unicode hex="20AC"/>
  <outline>
    <contour>
      <point x="600" y="440" type="line"/>
      <point x="280" y="440" type="line"/>
      <point x="240" y="320" type="line"/>
      <point x="480" y="320" type="line"/>
      <point x="480" y="280" type="line"/>
      <point x="240" y="280" type="line"/>
      <point x="240" y="240" type="line"/>
      <point x="280" y="80" type="line"/>
      <point x="360" y="40" type="line"/>
      <point x="440" y="40" type="line"/>
      <point x="560" y="120" type="line"/>
      <point x="680" y="240" type="line"/>
      <point x="720" y="200" type="line"/>
      <point x="600" y="80" type="line"/>
      <point x="480" y="0" type="line"/>
      <point x="320" y="0" type="line"/>
      <point x="160" y="80" type="line"/>
      <point x="80" y="280" type="line"/>
      <point x="0" y="280" type="line"/>
      <point x="0" y="320" type="line"/>
      <point x="80" y="320" type="line"/>
      <point x="120" y="440" type="line"/>
      <point x="40" y="440" type="line"/>
      <point x="40" y="480" type="line"/>
      <point x="120" y="480" type="line"/>
      <point x="200" y="600" type="line"/>
      <point x="320" y="720" type="line"/>
      <point x="480" y="800" type="line"/>
      <point x="600" y="800" type="line"/>
      <point x="800" y="720" type="line"/>
      <point x="840" y="640" type="line"/>
      <point x="760" y="560" type="line"/>
      <point x="680" y="560" type="line"/>
      <point x="680" y="680" type="line"/>
      <point x="600" y="760" type="line"/>
      <point x="520" y="760" type="line"/>
      <point x="320" y="600" type="line"/>
      <point x="280" y="480" type="line"/>
      <point x="600" y="480" type="line"/>
    </contour>
  </outline>
</glyph>
<glyph name="notequal" format="1">
  <advance width="520"/>
  <unicode hex="2260"/>
  <outline>
    <contour>
      <point x="320" y="560" type="line"/>
      <point x="400" y="560" type="line"/>
      <point x="160" y="80" type="line"/>
      <point x="80" y="80" type="line"/>
    </contour>
    <component base="equal" xOffset="-40"/>
  </outline>
</glyph>
<glyph name="greaterequal" format="1">
  <advance width="520"/>
  <unicode hex="2265"/>
  <outline>
    <contour>
      <point x="80" y="120" type="line"/>
      <point x="40" y="200" type="line"/>
      <point x="400" y="400" type="line"/>
      <point x="40" y="600" type="line"/>
      <point x="80" y="680" type="line"/>
      <point x="440" y="439" type="line"/>
      <point x="440" y="360" type="line"/>
    </contour>
    <component base="minus" xOffset="-40" yOffset="-280"/>
  </outline>
</glyph>
<glyph name="fi" format="1">
  <advance width="760"/>
  <unicode hex="FB01"/>
  <outline>
    <contour>
      <point x="-240" y="-280" type="line"/>
      <point x="-120" y="-320" type="line"/>
      <point x="-40" y="-280" type="line"/>
      <point x="80" y="-160" type="line"/>
      <point x="360" y="480" type="line"/>
      <point x="520" y="480" type="line"/>
      <point x="520" y="520" type="line"/>
      <point x="360" y="520" type="line"/>
      <point x="480" y="720" type="line"/>
      <point x="560" y="800" type="line"/>
      <point x="680" y="760" type="line"/>
      <point x="640" y="680" type="line"/>
      <point x="760" y="640" type="line"/>
      <point x="800" y="720" type="line"/>
      <point x="760" y="800" type="line"/>
      <point x="560" y="840" type="line"/>
      <point x="440" y="800" type="line"/>
      <point x="360" y="720" type="line"/>
      <point x="280" y="560" type="line"/>
      <point x="200" y="520" type="line"/>
      <point x="120" y="520" type="line"/>
      <point x="120" y="480" type="line"/>
      <point x="240" y="480" type="line"/>
      <point x="-80" y="-240" type="line"/>
      <point x="-120" y="-240" type="line"/>
      <point x="-120" y="-160" type="line"/>
      <point x="-160" y="-120" type="line"/>
      <point x="-240" y="-160" type="line"/>
    </contour>
    <contour>
      <point x="520" y="520" type="line"/>
      <point x="640" y="560" type="line"/>
      <point x="720" y="520" type="line"/>
      <point x="720" y="480" type="line"/>
      <point x="480" y="80" type="line"/>
      <point x="520" y="80" type="line"/>
      <point x="720" y="280" type="line"/>
      <point x="760" y="240" type="line"/>
      <point x="560" y="40" type="line"/>
      <point x="480" y="0" type="line"/>
      <point x="400" y="0" type="line"/>
      <point x="360" y="40" type="line"/>
      <point x="360" y="80" type="line"/>
      <point x="600" y="480" type="line"/>
      <point x="520" y="480" type="line"/>
    </contour>
  </outline>
</glyph>
<glyph name="Th" format="1">
  <advance width="1240"/>
  <outline>
    <contour>
      <point x="640" y="800" type="line"/>
      <point x="320" y="800" type="line"/>
      <point x="160" y="840" type="line"/>
      <point x="160" y="600" type="line"/>
      <point x="200" y="600" type="line"/>
      <point x="240" y="720" type="line"/>
      <point x="440" y="760" type="line"/>
      <point x="240" y="80" type="line"/>
      <point x="120" y="0" type="line"/>
      <point x="440" y="0" type="line"/>
      <point x="360" y="80" type="line"/>
      <point x="560" y="760" type="line"/>
      <point x="880" y="760" type="line"/>
      <point x="720" y="400" type="line"/>
      <point x="520" y="40" type="line"/>
      <point x="560" y="0" type="line"/>
      <point x="640" y="0" type="line"/>
      <point x="800" y="320" type="line"/>
      <point x="920" y="440" type="line"/>
      <point x="1000" y="480" type="line"/>
      <point x="1040" y="440" type="line"/>
      <point x="840" y="80" type="line"/>
      <point x="840" y="40" type="line"/>
      <point x="880" y="0" type="line"/>
      <point x="960" y="0" type="line"/>
      <point x="1040" y="40" type="line"/>
      <point x="1240" y="240" type="line"/>
      <point x="1200" y="280" type="line"/>
      <point x="1000" y="80" type="line"/>
      <point x="960" y="80" type="line"/>
      <point x="1160" y="400" type="line"/>
      <point x="1160" y="520" type="line"/>
      <point x="1040" y="560" type="line"/>
      <point x="920" y="520" type="line"/>
      <point x="840" y="440" type="line"/>
      <point x="1040" y="840" type="line"/>
    </contour>
    <contour>
      <point x="880" y="760" type="line"/>
      <point x="880" y="760" type="line"/>
    </contour>
  </outline>
</glyph>
<glyph name="numero" format="1">
  <advance width="1240"/>
  <outline>
    <contour>
      <point x="1120" y="760" type="line"/>
      <point x="1200" y="760" type="line"/>
      <point x="1240" y="720" type="line"/>
      <point x="1280" y="600" type="line"/>
      <point x="1160" y="400" type="line"/>
      <point x="1040" y="360" type="line"/>
      <point x="960" y="360" type="line"/>
      <point x="920" y="400" type="line"/>
      <point x="880" y="520" type="line"/>
      <point x="1000" y="720" type="line"/>
    </contour>
    <contour>
      <point x="1120" y="720" type="line"/>
      <point x="1080" y="680" type="line"/>
      <point x="1000" y="520" type="line"/>
      <point x="1000" y="440" type="line"/>
      <point x="1040" y="400" type="line"/>
      <point x="1080" y="440" type="line"/>
      <point x="1160" y="600" type="line"/>
      <point x="1160" y="680" type="line"/>
    </contour>
    <contour>
      <point x="1320" y="600" type="line"/>
      <point x="1320" y="600" type="line"/>
    </contour>
    <component base="N"/>
    <component base="endash" xOffset="800" yOffset="-40"/>
  </outline>
</glyph>
<glyph name="velvetyne" format="1">
  <advance width="1558"/>
  <outline>
    <contour>
      <point x="760" y="0" type="line"/>
      <point x="1080" y="0" type="line"/>
      <point x="1000" y="80" type="line"/>
      <point x="1040" y="240" type="line"/>
      <point x="1080" y="360" type="line"/>
      <point x="1120" y="400" type="line"/>
      <point x="1280" y="400" type="line"/>
      <point x="1360" y="320" type="line"/>
      <point x="1360" y="520" type="line"/>
      <point x="1280" y="440" type="line"/>
      <point x="1120" y="440" type="line"/>
      <point x="1120" y="480" type="line"/>
      <point x="1200" y="720" type="line"/>
      <point x="1240" y="760" type="line"/>
      <point x="1440" y="760" type="line"/>
      <point x="1560" y="600" type="line"/>
      <point x="1600" y="600" type="line"/>
      <point x="1560" y="840" type="line"/>
      <point x="1400" y="800" type="line"/>
      <point x="1000" y="800" type="line"/>
      <point x="1080" y="720" type="line"/>
      <point x="1000" y="480" type="line"/>
      <point x="960" y="440" type="line"/>
      <point x="560" y="440" type="line"/>
      <point x="760" y="720" type="line"/>
      <point x="880" y="800" type="line"/>
      <point x="600" y="800" type="line"/>
      <point x="680" y="720" type="line"/>
      <point x="280" y="160" type="line"/>
      <point x="280" y="720" type="line"/>
      <point x="360" y="800" type="line"/>
      <point x="80" y="800" type="line"/>
      <point x="160" y="720" type="line"/>
      <point x="160" y="-40" type="line"/>
      <point x="240" y="0" type="line"/>
      <point x="520" y="400" type="line"/>
      <point x="680" y="400" type="line"/>
      <point x="480" y="-280" type="line"/>
      <point x="360" y="-360" type="line"/>
      <point x="680" y="-360" type="line"/>
      <point x="600" y="-280" type="line"/>
      <point x="800" y="400" type="line"/>
      <point x="960" y="400" type="line"/>
      <point x="960" y="360" type="line"/>
      <point x="880" y="80" type="line"/>
    </contour>
  </outline>
</glyph>
